<svg width="20" height="20" viewBox="0 0 20 20" fill="none" xmlns="http://www.w3.org/2000/svg">
<path d="M14.166 2.50016H17.4993C17.7204 2.50016 17.9323 2.58796 18.0886 2.74424C18.2449 2.90052 18.3327 3.11248 18.3327 3.3335V16.6668C18.3327 16.8878 18.2449 17.0998 18.0886 17.2561C17.9323 17.4124 17.7204 17.5002 17.4993 17.5002H2.49935C2.27834 17.5002 2.06637 17.4124 1.91009 17.2561C1.75381 17.0998 1.66602 16.8878 1.66602 16.6668V3.3335C1.66602 3.11248 1.75381 2.90052 1.91009 2.74424C2.06637 2.58796 2.27834 2.50016 2.49935 2.50016H5.83268V0.833496H7.49935V2.50016H12.4993V0.833496H14.166V2.50016ZM16.666 9.16683H3.33268V15.8335H16.666V9.16683ZM12.4993 4.16683H7.49935V5.8335H5.83268V4.16683H3.33268V7.50016H16.666V4.16683H14.166V5.8335H12.4993V4.16683ZM4.99935 10.8335H6.66602V12.5002H4.99935V10.8335ZM9.16602 10.8335H10.8327V12.5002H9.16602V10.8335ZM13.3327 10.8335H14.9993V12.5002H13.3327V10.8335Z" fill="#9CA3AF"/>
</svg>
