<svg width="20" height="20" viewBox="0 0 20 20" fill="none" xmlns="http://www.w3.org/2000/svg">
<g clip-path="url(#clip0_8054_124971)">
<path d="M18.1513 0.833984H1.84996C1.58112 0.835983 1.32386 0.943665 1.13376 1.13376C0.943665 1.32386 0.835983 1.58112 0.833984 1.84996V18.1513C0.835983 18.4202 0.943665 18.6774 1.13376 18.8675C1.32386 19.0576 1.58112 19.1653 1.84996 19.1673H10.627V12.0784H8.24371V9.30551H10.627V7.26593C10.627 4.89787 12.0708 3.6069 14.1944 3.6069C14.9048 3.6069 15.6152 3.6069 16.3257 3.71385V6.18121H14.8666C13.7132 6.18121 13.4916 6.73121 13.4916 7.53329V9.29787H16.2416L15.8826 12.0708H13.4916V19.1673H18.1513C18.4202 19.1653 18.6774 19.0576 18.8675 18.8675C19.0576 18.6774 19.1653 18.4202 19.1673 18.1513V1.84996C19.1653 1.58112 19.0576 1.32386 18.8675 1.13376C18.6774 0.943665 18.4202 0.835983 18.1513 0.833984Z" fill="#6B7280"/>
</g>
<defs>
<clipPath id="clip0_8054_124971">
<rect width="20" height="20" fill="white"/>
</clipPath>
</defs>
</svg>
