<svg width="20" height="20" viewBox="0 0 20 20" fill="none" xmlns="http://www.w3.org/2000/svg">
<path d="M10.887 6.75832L12.0661 7.93749C12.6079 8.47917 13.0376 9.12226 13.3308 9.83003C13.624 10.5378 13.7749 11.2964 13.7749 12.0625C13.7749 12.8286 13.624 13.5872 13.3308 14.2949C13.0376 15.0027 12.6079 15.6458 12.0661 16.1875L11.7711 16.4817C10.6771 17.5757 9.19331 18.1903 7.64613 18.1903C6.09896 18.1903 4.61515 17.5757 3.52113 16.4817C2.42711 15.3876 1.8125 13.9038 1.8125 12.3567C1.8125 10.8095 2.42711 9.32568 3.52113 8.23166L4.7003 9.41082C4.31061 9.79712 4.00105 10.2566 3.7894 10.7628C3.57776 11.2691 3.46819 11.8121 3.46699 12.3609C3.46579 12.9096 3.57298 13.4531 3.7824 13.9603C3.99183 14.4674 4.29937 14.9283 4.68737 15.3163C5.07536 15.7043 5.53617 16.0118 6.04335 16.2212C6.55052 16.4306 7.09406 16.5378 7.64277 16.5366C8.19148 16.5354 8.73454 16.4259 9.24079 16.2142C9.74704 16.0026 10.2065 15.693 10.5928 15.3033L10.8878 15.0083C11.6689 14.227 12.1077 13.1673 12.1077 12.0625C12.1077 10.9576 11.6689 9.89802 10.8878 9.11666L9.70863 7.93749L10.8878 6.75916L10.887 6.75832ZM16.4853 11.7675L15.307 10.5892C15.6967 10.2029 16.0062 9.7434 16.2179 9.23715C16.4295 8.7309 16.5391 8.18784 16.5403 7.63913C16.5415 7.09042 16.4343 6.54688 16.2249 6.0397C16.0154 5.53253 15.7079 5.07172 15.3199 4.68373C14.9319 4.29573 14.4711 3.98819 13.9639 3.77876C13.4567 3.56933 12.9132 3.46215 12.3645 3.46335C11.8158 3.46455 11.2727 3.57412 10.7665 3.78576C10.2602 3.99741 9.80076 4.30696 9.41446 4.69666L9.11946 4.99166C8.33834 5.77302 7.89952 6.83264 7.89952 7.93749C7.89952 9.04234 8.33834 10.102 9.11946 10.8833L10.2986 12.0625L9.11946 13.2408L7.94113 12.0625C7.39939 11.5208 6.96966 10.8777 6.67647 10.1699C6.38328 9.46218 6.23238 8.70358 6.23238 7.93749C6.23238 7.1714 6.38328 6.4128 6.67647 5.70503C6.96966 4.99726 7.39939 4.35417 7.94113 3.81249L8.23613 3.51832C9.33015 2.42431 10.814 1.80969 12.3611 1.80969C13.9083 1.80969 15.3921 2.42431 16.4861 3.51832C17.5801 4.61234 18.1948 6.09615 18.1948 7.64332C18.1948 9.1905 17.5801 10.6743 16.4861 11.7683L16.4853 11.7675Z" fill="#6B7280"/>
</svg>
