<svg width="20" height="20" viewBox="0 0 20 20" fill="none" xmlns="http://www.w3.org/2000/svg">
<path fill-rule="evenodd" clip-rule="evenodd" d="M0.833985 2.36565C0.833985 1.95943 0.995356 1.56984 1.2826 1.2826C1.56984 0.995358 1.95943 0.833986 2.36565 0.833986H17.634C17.8353 0.833658 18.0347 0.873039 18.2208 0.949875C18.4068 1.02671 18.5759 1.13949 18.7184 1.28177C18.8608 1.42404 18.9738 1.59301 19.0508 1.77899C19.1278 1.96498 19.1674 2.16434 19.1673 2.36565V17.634C19.1675 17.8353 19.1281 18.0348 19.0511 18.2208C18.9742 18.4069 18.8613 18.576 18.719 18.7184C18.5767 18.8608 18.4076 18.9738 18.2216 19.0508C18.0356 19.1278 17.8362 19.1674 17.6348 19.1673H2.36565C2.16444 19.1673 1.9652 19.1277 1.77932 19.0506C1.59343 18.9736 1.42454 18.8607 1.2823 18.7184C1.14007 18.5761 1.02726 18.4071 0.950337 18.2212C0.873412 18.0353 0.833875 17.836 0.833985 17.6348V2.36565ZM8.09065 7.82399H10.5732V9.07065C10.9315 8.35399 11.8482 7.70899 13.2257 7.70899C15.8665 7.70899 16.4923 9.13649 16.4923 11.7557V16.6073H13.8198V12.3523C13.8198 10.8607 13.4615 10.019 12.5515 10.019C11.289 10.019 10.764 10.9265 10.764 12.3523V16.6073H8.09065V7.82399ZM3.50732 16.4932H6.18065V7.70899H3.50732V16.4923V16.4932ZM6.56315 4.84399C6.56819 5.07288 6.52746 5.30048 6.44335 5.51341C6.35924 5.72635 6.23344 5.92035 6.07334 6.08401C5.91324 6.24768 5.72207 6.37771 5.51103 6.46649C5.29999 6.55527 5.07335 6.601 4.8444 6.601C4.61545 6.601 4.38881 6.55527 4.17777 6.46649C3.96674 6.37771 3.77556 6.24768 3.61546 6.08401C3.45536 5.92035 3.32956 5.72635 3.24545 5.51341C3.16134 5.30048 3.12061 5.07288 3.12565 4.84399C3.13555 4.3947 3.32097 3.96715 3.64222 3.65289C3.96347 3.33864 4.395 3.16267 4.8444 3.16267C5.2938 3.16267 5.72533 3.33864 6.04658 3.65289C6.36783 3.96715 6.55326 4.3947 6.56315 4.84399Z" fill="#6B7280"/>
</svg>
