<svg width="1213" height="466" viewBox="0 0 1213 466" fill="none" xmlns="http://www.w3.org/2000/svg">
<path d="M128.926 192.685C162.31 99.1674 260.965 125.917 260.965 125.917C260.965 125.917 170.656 111.151 142.622 199.105C114.589 287.059 187.134 329.003 187.134 329.003C187.134 329.003 95.5425 286.203 128.926 192.685Z" fill="#747888"/>
<path fill-rule="evenodd" clip-rule="evenodd" d="M234 339.275C293.804 339.275 342.284 290.795 342.284 230.991C342.284 171.188 293.804 122.707 234 122.707C174.197 122.707 125.716 171.188 125.716 230.991C125.716 290.795 174.197 339.275 234 339.275ZM234 444.991C352.189 444.991 448 349.18 448 230.991C448 112.802 352.189 16.9912 234 16.9912C115.811 16.9912 20.0004 112.802 20.0004 230.991C20.0004 349.18 115.811 444.991 234 444.991Z" fill="white"/>
<mask id="mask0_1431_316" style="mask-type:alpha" maskUnits="userSpaceOnUse" x="20" y="16" width="429" height="429">
<path fill-rule="evenodd" clip-rule="evenodd" d="M234 339.275C293.804 339.275 342.284 290.795 342.284 230.991C342.284 171.188 293.804 122.707 234 122.707C174.197 122.707 125.716 171.188 125.716 230.991C125.716 290.795 174.197 339.275 234 339.275ZM234 444.991C352.189 444.991 448 349.18 448 230.991C448 112.802 352.189 16.9912 234 16.9912C115.811 16.9912 20.0004 112.802 20.0004 230.991C20.0004 349.18 115.811 444.991 234 444.991Z" fill="white"/>
</mask>
<g mask="url(#mask0_1431_316)">
<path d="M369.463 321.085C356.837 396.626 334.795 419.738 334.795 419.738C334.795 419.738 324.737 428.94 289.855 438.142C254.973 447.344 233.358 444.99 233.358 444.99C233.358 444.99 222.872 416.314 220.732 391.918C218.592 367.522 225.654 338.846 225.654 338.846C225.654 338.846 272.521 347.406 316.819 298.829C361.117 250.251 321.527 167.646 321.527 167.646C321.527 167.646 391.291 177.277 369.463 321.085Z" fill="#5AC4EE"/>
<path d="M421.464 181.771L360.902 202.743C360.902 202.743 377.38 251.535 370.532 311.669C363.684 371.803 333.724 420.381 333.724 420.381C333.724 420.381 412.904 387.425 434.518 306.533C456.132 225.641 421.464 181.771 421.464 181.771Z" fill="#424B8E"/>
<path d="M422.535 181.771L360.903 202.743C354.697 175.779 324.309 119.925 295.847 89.1093C290.711 77.9813 282.266 64.9273 272.949 53.1573C252.619 27.4773 227.153 19.9873 227.153 19.9873C227.153 19.9873 323.453 29.1893 376.953 101.307C430.453 173.425 422.535 181.771 422.535 181.771Z" fill="#7F2A91"/>
<path d="M272.948 53.1574C282.266 64.9274 291.78 77.7674 295.846 89.1094C295.846 89.1094 266.742 56.2071 209.39 48.2354C152.038 40.2637 116.728 51.8734 116.728 51.8734C116.728 51.8734 140.268 35.1814 173.652 24.9094C207.036 14.6374 227.152 19.9874 227.152 19.9874C227.152 19.9874 252.618 27.4774 272.948 53.1574Z" fill="#672A78"/>
<path d="M401.99 98.0975C484.808 200.817 432.592 310.813 432.592 310.813C432.592 310.813 461.696 248.967 400.492 137.473C339.288 25.9794 213.028 17.8092 203.612 19.1314C203.612 19.1314 319.172 -4.62256 401.99 98.0975Z" fill="#242D6B"/>
<path d="M400.278 189.261L360.902 202.743C354.696 175.779 324.308 119.925 295.846 89.109C295.846 89.109 292.636 79.907 284.932 69.207C284.932 69.207 341.272 96.171 366.038 128.485C390.805 160.799 400.278 189.261 400.278 189.261Z" fill="#9B3384"/>
<path d="M295.846 89.1097C295.846 89.1097 353.84 149.03 360.902 202.744C360.902 202.744 355.552 190.76 345.28 181.13C327.518 153.952 301.624 117.358 225.44 86.5417C149.256 55.7257 55.9523 110.938 55.9523 110.938C55.9523 110.938 86.7683 63.4297 117.156 51.6597C117.156 51.6597 228.008 16.1357 295.846 89.1097Z" fill="#CE5870"/>
<path d="M321.74 167.647C321.74 167.647 333.938 170.001 345.28 181.129C327.518 153.951 301.624 117.356 225.44 86.5402C149.256 55.7242 55.9521 110.936 55.9521 110.936C55.9521 110.936 32.4121 143.893 25.5641 181.985C25.5641 181.985 116.728 87.0564 215.596 124.419C267.264 119.635 295.418 135.547 321.74 167.647Z" fill="#EA777A"/>
<mask id="mask1_1431_316" style="mask-type:alpha" maskUnits="userSpaceOnUse" x="25" y="77" width="321" height="105">
<path d="M321.74 167.648C321.74 167.648 333.938 170.002 345.28 181.13C327.518 153.952 301.624 117.357 225.44 86.5412C149.256 55.7252 55.9523 110.937 55.9523 110.937C55.9523 110.937 32.4123 143.894 25.5643 181.986C25.5643 181.986 116.728 87.0574 215.596 124.42C267.264 119.636 295.418 135.548 321.74 167.648Z" fill="#EA777A"/>
</mask>
<g mask="url(#mask1_1431_316)">
<path d="M321.741 167.648C321.741 167.648 333.939 170.002 345.281 181.13C317.247 124.205 250.479 97.4551 250.479 97.4551C250.479 97.4551 248.553 100.023 247.055 109.867C245.557 119.711 247.055 123.349 247.055 123.349C292.637 140.469 295.419 138.757 321.741 167.648Z" fill="#EE9295"/>
</g>
<path d="M25.5646 181.985C16.5766 206.595 20.0006 238.909 20.0006 238.909C20.0006 238.909 48.0346 189.152 93.1886 167.433C138.343 145.713 160.599 151.383 160.599 151.383C170.659 144.745 178.147 138.757 186.065 134.263C193.983 129.769 215.597 124.419 215.597 124.419C116.729 87.0569 25.5646 181.985 25.5646 181.985Z" fill="#FAB760"/>
<path d="M160.597 151.383L134.705 187.549C134.705 187.549 105.387 183.483 76.7106 198.249C48.0346 213.015 19.9988 238.909 19.9988 238.909C19.9988 238.909 48.0328 189.153 93.1868 167.433C138.341 145.713 160.597 151.383 160.597 151.383Z" fill="#FCC681"/>
<path d="M125.93 228.424L134.706 187.549C134.706 187.549 105.388 183.483 76.7121 198.249C48.0361 213.015 20.0004 238.909 20.0004 238.909C20.0004 238.909 20.0004 263.092 24.2804 280.426C28.5604 297.76 36.2644 313.596 36.2644 313.596C36.2644 313.596 51.6758 277.002 76.7121 254.96C101.748 232.918 125.93 228.424 125.93 228.424Z" fill="#F9E894"/>
<path d="M125.93 228.423C125.93 228.423 126.144 260.095 138.556 281.067C150.968 302.039 173.224 320.657 173.224 320.657C173.224 320.657 163.112 335.851 158.244 370.733C153.377 405.615 160.384 432.579 160.384 432.579C160.384 432.579 148.828 404.545 127.428 401.977C106.028 399.409 97.0403 395.343 97.0403 395.343C97.0403 395.343 71.5743 377.581 59.3763 359.391C47.1783 341.201 36.2643 313.595 36.2643 313.595C36.2643 313.595 51.6757 277.001 76.712 254.959C101.748 232.917 125.93 228.423 125.93 228.423Z" fill="#B6BBC2"/>
<path d="M125.93 228.423C125.93 228.423 126.144 260.095 138.556 281.067C150.968 302.039 173.438 320.443 173.438 320.443C173.438 320.443 163.112 335.851 158.244 370.733C153.377 405.615 160.384 432.579 160.384 432.579C160.384 432.579 146.26 428.085 126.786 417.171C107.312 406.257 97.0403 395.343 97.0403 395.343C97.0403 395.343 71.5743 377.581 59.3763 359.391C47.1783 341.201 36.2643 313.595 36.2643 313.595C36.2643 313.595 51.6757 277.001 76.712 254.959C101.748 232.917 125.93 228.423 125.93 228.423Z" fill="#B6BBC2"/>
<mask id="mask2_1431_316" style="mask-type:alpha" maskUnits="userSpaceOnUse" x="36" y="228" width="138" height="205">
<path d="M125.93 228.423C125.93 228.423 126.144 260.095 138.556 281.067C150.968 302.039 173.224 320.657 173.224 320.657C173.224 320.657 163.112 335.851 158.244 370.733C153.377 405.615 160.384 432.579 160.384 432.579C160.384 432.579 146.26 428.085 126.786 417.171C107.312 406.257 97.0403 395.343 97.0403 395.343C97.0403 395.343 71.5743 377.581 59.3763 359.391C47.1783 341.201 36.2643 313.595 36.2643 313.595C36.2643 313.595 51.6757 277.001 76.712 254.959C101.748 232.917 125.93 228.423 125.93 228.423Z" fill="#B6BBC2"/>
</mask>
<g mask="url(#mask2_1431_316)">
<path d="M127.428 401.978C149.47 403.262 156.746 402.192 156.746 402.192C156.746 402.192 157.816 413.32 158.03 417.814C158.244 422.308 160.598 432.152 160.598 432.152C160.598 432.152 142.408 425.946 127.428 417.6C112.448 409.253 97.0403 395.344 97.0403 395.344C97.0403 395.344 105.386 400.694 127.428 401.978Z" fill="#A4AAB2"/>
</g>
<path d="M158.244 370.734C153.377 405.616 160.384 432.58 160.384 432.58C160.384 432.58 175.364 439.641 194.624 443.065C213.884 446.489 233.358 444.991 233.358 444.991C233.358 444.991 222.872 416.315 220.732 391.919C218.592 367.523 225.654 338.847 225.654 338.847C225.654 338.847 213.028 338.205 198.476 333.283C183.924 328.361 173.224 320.443 173.224 320.443C173.224 320.443 163.112 335.852 158.244 370.734Z" fill="#8BC0CA"/>
<mask id="mask3_1431_316" style="mask-type:alpha" maskUnits="userSpaceOnUse" x="156" y="320" width="78" height="126">
<path d="M158.244 370.734C153.377 405.616 160.384 432.58 160.384 432.58C160.384 432.58 175.364 439.641 194.624 443.065C213.884 446.489 233.358 444.991 233.358 444.991C233.358 444.991 222.872 416.315 220.732 391.919C218.592 367.523 225.654 338.847 225.654 338.847C225.654 338.847 213.028 338.205 198.476 333.283C183.924 328.361 173.224 320.443 173.224 320.443C173.224 320.443 163.111 335.852 158.244 370.734Z" fill="#8BC0CA"/>
</mask>
<g mask="url(#mask3_1431_316)">
<path d="M220.732 388.923C365.824 324.723 322.382 167.861 322.382 167.861C322.382 167.861 380.59 166.577 370.532 305.677C368.184 364.741 334.58 420.167 334.58 420.167C334.58 420.167 328.16 434.585 247.268 445.205C166.376 455.825 97.0402 395.343 97.0402 395.343C97.0402 395.343 152.038 414.817 220.732 388.923Z" fill="#6EB0BD"/>
</g>
<mask id="mask4_1431_316" style="mask-type:alpha" maskUnits="userSpaceOnUse" x="220" y="167" width="154" height="279">
<path d="M369.464 321.085C356.838 396.626 334.796 419.738 334.796 419.738C334.796 419.738 324.738 428.94 289.856 438.142C254.974 447.344 233.36 444.99 233.36 444.99C233.36 444.99 222.874 416.314 220.734 391.918C218.594 367.522 225.654 338.632 225.654 338.632C225.654 338.632 272.522 347.406 316.82 298.829C361.118 250.251 321.528 167.646 321.528 167.646C321.528 167.646 391.506 178.133 369.464 321.085Z" fill="#5AC4EE"/>
</mask>
<g mask="url(#mask4_1431_316)">
<path d="M220.732 388.923C365.824 324.723 322.382 167.861 322.382 167.861C322.382 167.861 365.61 167.861 370.318 250.465C370.318 250.465 379.52 329.217 322.382 385.285C265.245 441.353 208.32 443.921 208.32 443.921C208.32 443.921 174.294 442.423 145.404 429.797C116.514 417.171 97.0404 395.343 97.0404 395.343C97.0404 395.343 152.038 414.817 220.732 388.923Z" fill="#7BD0F1"/>
<path d="M355.553 220.505C351.915 208.735 353.07 191.7 353.413 190.331C353.617 189.513 362.615 201.673 366.253 219.435C368.663 231.205 369.891 242.119 370.319 249.609C370.319 249.609 359.191 232.275 355.553 220.505Z" fill="#5AC4EE"/>
<path d="M220.518 388.922C220.518 388.922 241.918 382.288 268.026 360.246C294.134 338.204 308.472 309.528 308.472 309.528C308.472 309.528 283.648 329.858 262.676 335.422C241.704 340.986 225.654 338.632 225.654 338.632C225.654 338.632 221.803 349.546 220.518 364.098C219.234 378.65 220.518 388.922 220.518 388.922Z" fill="#95D9F4"/>
</g>
<mask id="mask5_1431_316" style="mask-type:alpha" maskUnits="userSpaceOnUse" x="156" y="320" width="78" height="126">
<path d="M158.244 370.734C153.377 405.616 160.384 432.58 160.384 432.58C160.384 432.58 175.364 439.641 194.624 443.065C213.884 446.489 233.358 444.991 233.358 444.991C233.358 444.991 222.872 416.315 220.732 391.919C218.592 367.523 225.654 338.847 225.654 338.847C225.654 338.847 213.028 338.205 198.476 333.283C183.924 328.361 173.224 320.443 173.224 320.443C173.224 320.443 163.111 335.852 158.244 370.734Z" fill="#8BC0CA"/>
</mask>
<g mask="url(#mask5_1431_316)">
<path d="M233.358 444.992L232.288 439.428C232.288 439.428 224.156 441.568 218.806 442.424C213.456 443.28 204.682 443.28 204.682 443.28C204.682 443.28 224.584 445.848 233.358 444.992Z" fill="#4A9CAD"/>
</g>
</g>
<path d="M371.266 288.53C371.068 289.022 370.869 289.511 370.667 289.999C355.926 325.623 328.908 352.534 296.5 367.792M94.7347 177.469C94.5968 177.812 94.4603 178.156 94.3252 178.499C80.8837 212.686 80.9547 248.892 92.0001 281.174M185 374.06C218.431 385.468 253.414 384.279 284.5 372.818M171.5 368.718C137.037 353.132 111.203 325.844 96.8355 293.499M375.67 275.999C385.653 243.013 383.586 208.79 371.675 178.499M366 165.824C351.315 136.721 327.077 112.297 295.5 97.7377M283.5 92.8165C249.496 80.5424 213.738 81.4248 182 92.9982M169.944 97.9993C140.61 111.694 115.652 134.917 100.157 165.499" stroke="white" stroke-width="5"/>
<circle cx="289.459" cy="95.1065" r="7" transform="rotate(21.8816 289.459 95.1065)" stroke="white" stroke-width="4"/>
<circle cx="178.397" cy="371.638" r="7" transform="rotate(21.8816 178.397 371.638)" stroke="white" stroke-width="4"/>
<circle cx="373.502" cy="282.962" r="7" transform="rotate(111.882 373.502 282.962)" stroke="white" stroke-width="4"/>
<circle cx="96.9708" cy="171.901" r="7" transform="rotate(111.882 96.9708 171.901)" stroke="white" stroke-width="4"/>
<circle cx="368.924" cy="171.895" r="7" transform="rotate(66.8816 368.924 171.895)" stroke="white" stroke-width="4"/>
<circle cx="94.2999" cy="287.599" r="7" transform="rotate(66.8816 94.2999 287.599)" stroke="white" stroke-width="4"/>
<circle cx="290.202" cy="370.589" r="7" transform="rotate(156.882 290.202 370.589)" stroke="white" stroke-width="4"/>
<circle cx="175.799" cy="95.4092" r="7" transform="rotate(156.882 175.799 95.4092)" stroke="white" stroke-width="4"/>
<path fill-rule="evenodd" clip-rule="evenodd" d="M267.019 352.582C266.54 352.453 265.85 352.501 265.044 352.924C264.398 353.263 264.096 353.734 263.937 354.134C263.909 354.203 263.886 354.269 263.867 354.332C264.056 354.617 264.31 354.964 264.611 355.292C265.363 356.11 265.929 356.308 266.268 356.255C267.209 356.108 267.848 355.668 268.157 355.234C268.423 354.86 268.527 354.399 268.252 353.778C267.911 353.009 267.449 352.699 267.019 352.582ZM260.997 357.116C261.2 357.387 261.436 357.677 261.701 357.966C262.647 358.995 264.467 360.537 266.879 360.16C268.689 359.876 270.351 358.966 271.377 357.526C272.445 356.025 272.709 354.086 271.865 352.179C271.087 350.419 269.733 349.223 268.051 348.768C266.419 348.326 264.702 348.64 263.208 349.425C261.552 350.293 260.693 351.598 260.265 352.673C260.185 352.875 260.119 353.069 260.066 353.252L243.079 359.362L231.679 381.448L235.772 382.84L245.879 362.555L260.997 357.116Z" fill="white"/>
<path fill-rule="evenodd" clip-rule="evenodd" d="M341.462 296.519C341.014 296.731 340.52 297.215 340.181 298.061C339.91 298.737 339.986 299.292 340.124 299.7C340.148 299.77 340.174 299.835 340.2 299.895C340.528 299.99 340.947 300.089 341.389 300.143C342.492 300.277 343.051 300.061 343.275 299.8C343.895 299.078 344.096 298.328 344.049 297.797C344.009 297.34 343.788 296.922 343.176 296.628C342.417 296.264 341.864 296.328 341.462 296.519ZM339.824 303.876C340.154 303.951 340.521 304.018 340.911 304.066C342.299 304.235 344.684 304.226 346.274 302.374C347.467 300.984 348.141 299.212 347.986 297.451C347.824 295.615 346.767 293.969 344.886 293.066C343.152 292.233 341.346 292.202 339.772 292.947C338.242 293.671 337.141 295.024 336.513 296.591C335.818 298.326 336.011 299.876 336.383 300.971C336.453 301.177 336.529 301.368 336.607 301.541L327.652 317.215L333.315 341.417L337.332 339.818L331.853 317.827L339.824 303.876Z" fill="white"/>
<path fill-rule="evenodd" clip-rule="evenodd" d="M356.402 202.022C356.206 202.477 356.156 203.167 356.461 204.025C356.705 204.712 357.129 205.078 357.502 205.292C357.566 205.329 357.629 205.361 357.688 205.389C357.997 205.243 358.376 205.04 358.743 204.789C359.66 204.16 359.936 203.627 359.932 203.284C359.919 202.332 359.574 201.637 359.188 201.269C358.855 200.953 358.414 200.786 357.76 200.97C356.95 201.199 356.578 201.613 356.402 202.022ZM360.039 208.624C360.336 208.461 360.656 208.269 360.979 208.047C362.132 207.256 363.916 205.672 363.883 203.231C363.859 201.4 363.192 199.625 361.911 198.406C360.576 197.136 358.695 196.601 356.687 197.167C354.835 197.689 353.46 198.86 352.772 200.46C352.103 202.014 352.172 203.758 352.737 205.348C353.363 207.11 354.533 208.145 355.537 208.72C355.725 208.829 355.908 208.921 356.081 208.999L359.73 226.679L379.983 241.087L381.939 237.231L363.286 224.359L360.039 208.624Z" fill="white"/>
<path fill-rule="evenodd" clip-rule="evenodd" d="M296.505 123.545C296.713 123.995 297.193 124.494 298.035 124.84C298.71 125.117 299.265 125.046 299.674 124.911C299.744 124.888 299.81 124.863 299.87 124.837C299.968 124.51 300.07 124.092 300.128 123.651C300.272 122.549 300.061 121.988 299.803 121.762C299.086 121.135 298.338 120.928 297.806 120.97C297.349 121.006 296.929 121.223 296.63 121.833C296.259 122.588 296.318 123.141 296.505 123.545ZM303.848 125.249C303.925 124.919 303.996 124.553 304.047 124.164C304.228 122.777 304.241 120.392 302.403 118.786C301.023 117.581 299.257 116.891 297.495 117.03C295.658 117.175 294.002 118.218 293.083 120.09C292.234 121.817 292.187 123.623 292.918 125.204C293.628 126.739 294.972 127.853 296.533 128.495C298.262 129.205 299.814 129.026 300.912 128.664C301.119 128.596 301.31 128.521 301.484 128.445L317.078 137.539L341.329 132.091L339.766 128.06L317.727 133.343L303.848 125.249Z" fill="white"/>
<path fill-rule="evenodd" clip-rule="evenodd" d="M199.751 112.209C200.218 112.375 200.91 112.38 201.746 112.021C202.416 111.733 202.754 111.286 202.944 110.9C202.976 110.833 203.004 110.769 203.028 110.708C202.862 110.409 202.636 110.044 202.361 109.694C201.674 108.82 201.125 108.578 200.783 108.605C199.834 108.679 199.162 109.068 198.82 109.477C198.526 109.83 198.388 110.281 198.614 110.922C198.894 111.715 199.331 112.06 199.751 112.209ZM206.105 108.153C205.923 107.868 205.711 107.561 205.468 107.252C204.604 106.153 202.909 104.475 200.475 104.665C198.649 104.808 196.921 105.587 195.788 106.944C194.606 108.358 194.193 110.271 194.888 112.238C195.529 114.052 196.786 115.349 198.427 115.932C200.021 116.499 201.757 116.318 203.307 115.651C205.025 114.913 205.982 113.678 206.492 112.64C206.587 112.445 206.668 112.256 206.735 112.078L224.142 107.296L237.213 86.1556L233.239 84.4524L221.598 103.897L206.105 108.153Z" fill="white"/>
<path fill-rule="evenodd" clip-rule="evenodd" d="M126.144 168.078C126.588 167.857 127.071 167.362 127.392 166.51C127.649 165.827 127.561 165.274 127.414 164.87C127.389 164.8 127.362 164.735 127.334 164.676C127.004 164.588 126.583 164.498 126.141 164.454C125.035 164.343 124.48 164.571 124.262 164.836C123.658 165.572 123.473 166.325 123.531 166.856C123.581 167.312 123.81 167.724 124.429 168.005C125.195 168.353 125.746 168.277 126.144 168.078ZM127.626 160.688C127.294 160.621 126.925 160.561 126.535 160.522C125.144 160.382 122.759 160.441 121.209 162.327C120.046 163.742 119.41 165.528 119.602 167.285C119.803 169.117 120.895 170.74 122.794 171.603C124.546 172.399 126.352 172.392 127.91 171.614C129.424 170.858 130.496 169.481 131.091 167.901C131.749 166.152 131.523 164.606 131.128 163.519C131.053 163.315 130.973 163.126 130.891 162.954L139.512 147.093L133.335 123.018L129.353 124.701L135.298 146.571L127.626 160.688Z" fill="white"/>
<path fill-rule="evenodd" clip-rule="evenodd" d="M107.924 260.157C108.142 259.712 108.226 259.025 107.964 258.153C107.754 257.455 107.349 257.068 106.987 256.836C106.924 256.796 106.864 256.761 106.806 256.73C106.49 256.861 106.101 257.044 105.722 257.277C104.776 257.86 104.473 258.378 104.461 258.721C104.426 259.672 104.736 260.384 105.104 260.77C105.42 261.102 105.853 261.291 106.515 261.139C107.336 260.952 107.728 260.557 107.924 260.157ZM104.618 253.382C104.314 253.53 103.985 253.706 103.651 253.912C102.46 254.645 100.6 256.138 100.512 258.578C100.445 260.408 101.023 262.214 102.242 263.495C103.512 264.829 105.365 265.457 107.398 264.991C109.273 264.562 110.705 263.46 111.472 261.896C112.217 260.377 112.234 258.632 111.749 257.016C111.211 255.226 110.093 254.133 109.12 253.509C108.937 253.392 108.759 253.291 108.59 253.203L105.822 235.365L86.3084 219.97L84.1636 223.724L102.155 237.505L104.618 253.382Z" fill="white"/>
<path fill-rule="evenodd" clip-rule="evenodd" d="M169.392 338.234C169.155 337.798 168.644 337.331 167.781 337.04C167.091 336.807 166.541 336.913 166.142 337.074C166.073 337.102 166.009 337.131 165.951 337.16C165.874 337.493 165.798 337.917 165.769 338.361C165.696 339.47 165.943 340.016 166.215 340.225C166.971 340.804 167.731 340.963 168.259 340.887C168.713 340.822 169.117 340.579 169.377 339.951C169.699 339.173 169.604 338.625 169.392 338.234ZM161.955 337.005C161.899 337.339 161.852 337.709 161.826 338.101C161.734 339.496 161.874 341.877 163.812 343.362C165.266 344.476 167.072 345.051 168.822 344.799C170.646 344.536 172.231 343.389 173.029 341.462C173.764 339.684 173.696 337.879 172.865 336.348C172.057 334.861 170.645 333.836 169.046 333.296C167.275 332.698 165.738 332.977 164.665 333.409C164.463 333.49 164.278 333.577 164.109 333.664L147.963 325.59L124.112 332.583L125.93 336.506L147.584 329.819L161.955 337.005Z" fill="white"/>
<path d="M227 411.782C206.74 411.104 186.251 406.943 166.351 398.95C144.631 390.227 125.562 377.723 109.597 362.5M241 411.699C283.181 409.785 323.527 392.906 354.5 364.28M365 353.727C379.094 338.321 390.709 320.168 398.95 299.65C407.6 278.111 411.763 255.882 411.879 234M411.401 220C408.402 179.26 391.457 140.525 363.5 110.663M353.726 101C338.32 86.9062 320.168 75.2913 299.649 67.0508C280.404 59.3213 260.608 55.1753 241 54.2971M227 54.2227C184.7 55.6652 144.121 72.1685 112.835 100.5M102.5 110.655C87.7293 126.403 75.5815 145.109 67.0504 166.351C59.9775 183.962 55.9051 202.033 54.5914 220M54.1221 234C54.3826 277.793 70.8272 320.069 99.9 352.5" stroke="white" stroke-width="5"/>
<circle cx="234" cy="54" r="7" stroke="white" stroke-width="4"/>
<circle cx="234" cy="412" r="7" stroke="white" stroke-width="4"/>
<circle cx="412" cy="227" r="7" transform="rotate(90 412 227)" stroke="white" stroke-width="4"/>
<circle cx="54" cy="227" r="7" transform="rotate(90 54 227)" stroke="white" stroke-width="4"/>
<circle cx="358.572" cy="105.428" r="7" transform="rotate(45 358.572 105.428)" stroke="white" stroke-width="4"/>
<circle cx="104.428" cy="357.572" r="7" transform="rotate(45 104.428 357.572)" stroke="white" stroke-width="4"/>
<circle cx="107.428" cy="105.428" r="7" transform="rotate(-45 107.428 105.428)" stroke="white" stroke-width="4"/>
<circle cx="359.572" cy="359.572" r="7" transform="rotate(-45 359.572 359.572)" stroke="white" stroke-width="4"/>
<path fill-rule="evenodd" clip-rule="evenodd" d="M345.488 399.087C345.22 399.504 344.676 399.932 343.795 400.16C343.089 400.342 342.548 400.196 342.162 400.007C342.095 399.974 342.034 399.94 341.978 399.907C341.926 399.569 341.881 399.141 341.884 398.696C341.892 397.585 342.178 397.058 342.465 396.87C343.261 396.347 344.03 396.243 344.551 396.358C344.999 396.456 345.385 396.728 345.598 397.373C345.863 398.172 345.728 398.712 345.488 399.087ZM337.981 399.771C337.95 399.434 337.93 399.061 337.932 398.669C337.942 397.271 338.255 394.906 340.295 393.566C341.827 392.561 343.67 392.119 345.397 392.498C347.197 392.892 348.695 394.151 349.35 396.132C349.954 397.958 349.755 399.753 348.814 401.22C347.901 402.644 346.418 403.564 344.784 403.986C342.974 404.454 341.461 404.064 340.423 403.555C340.227 403.46 340.048 403.36 339.886 403.26L323.196 410.139L299.917 401.43L302.016 397.65L323.126 405.894L337.981 399.771Z" fill="white"/>
<path fill-rule="evenodd" clip-rule="evenodd" d="M430.712 283.15C430.725 283.645 430.515 284.305 429.914 284.988C429.432 285.535 428.903 285.718 428.476 285.778C428.403 285.788 428.333 285.795 428.268 285.799C428.035 285.548 427.758 285.22 427.511 284.85C426.893 283.926 426.834 283.329 426.966 283.012C427.331 282.132 427.909 281.615 428.405 281.417C428.831 281.247 429.303 281.255 429.841 281.669C430.509 282.182 430.7 282.704 430.712 283.15ZM424.884 287.93C424.669 287.669 424.443 287.372 424.225 287.045C423.448 285.883 422.38 283.75 423.316 281.496C424.019 279.804 425.296 278.404 426.938 277.747C428.649 277.064 430.595 277.265 432.249 278.536C433.775 279.708 434.617 281.306 434.662 283.047C434.706 284.738 433.995 286.332 432.88 287.599C431.645 289.002 430.174 289.529 429.029 289.691C428.814 289.721 428.61 289.739 428.42 289.748L418.47 304.81L394.316 310.672L393.93 306.366L416.028 301.336L424.884 287.93Z" fill="white"/>
<path fill-rule="evenodd" clip-rule="evenodd" d="M405.647 127.802C406.032 128.114 406.397 128.701 406.527 129.602C406.63 130.324 406.426 130.845 406.195 131.209C406.155 131.271 406.115 131.329 406.075 131.381C405.734 131.395 405.304 131.393 404.862 131.341C403.758 131.211 403.266 130.868 403.11 130.562C402.678 129.714 402.66 128.938 402.831 128.432C402.978 127.998 403.291 127.644 403.955 127.503C404.778 127.328 405.3 127.522 405.647 127.802ZM405.5 135.338C405.162 135.332 404.789 135.311 404.399 135.265C403.011 135.102 400.695 134.53 399.588 132.354C398.757 130.722 398.521 128.841 399.087 127.166C399.678 125.421 401.094 124.071 403.135 123.638C405.017 123.238 406.779 123.634 408.133 124.73C409.448 125.795 410.199 127.37 410.438 129.041C410.704 130.891 410.15 132.352 409.53 133.328C409.413 133.512 409.294 133.678 409.178 133.829L414.177 151.175L402.957 173.353L399.431 170.851L409.949 150.777L405.5 135.338Z" fill="white"/>
<path fill-rule="evenodd" clip-rule="evenodd" d="M280.879 35.599C281.372 35.5437 282.047 35.6961 282.779 36.2368C283.365 36.6698 283.593 37.1818 283.689 37.6013C283.706 37.6734 283.718 37.7424 283.728 37.8071C283.498 38.0603 283.194 38.3648 282.847 38.6429C281.979 39.3373 281.39 39.4474 281.063 39.3434C280.155 39.0548 279.59 38.5228 279.35 38.0464C279.144 37.6365 279.112 37.1654 279.479 36.5931C279.932 35.8845 280.436 35.6487 280.879 35.599ZM286.141 40.9958C285.899 41.2324 285.622 41.4831 285.316 41.7282C284.224 42.6019 282.191 43.849 279.865 43.1093C278.119 42.5542 276.614 41.4015 275.82 39.8219C274.992 38.1758 275.026 36.2196 276.15 34.4628C277.188 32.8423 278.707 31.8661 280.438 31.6719C282.119 31.4833 283.768 32.0551 285.126 33.0576C286.63 34.1679 287.281 35.5883 287.54 36.7153C287.589 36.9272 287.624 37.1291 287.649 37.3177L303.509 45.9409L311.418 69.5039L307.161 70.2566L300.257 48.6707L286.141 40.9958Z" fill="white"/>
<path fill-rule="evenodd" clip-rule="evenodd" d="M124.551 59.4427C124.881 59.0733 125.486 58.7374 126.393 58.653C127.119 58.5853 127.629 58.8158 127.98 59.0645C128.041 59.1072 128.096 59.1504 128.146 59.1924C128.144 59.5341 128.12 59.9635 128.046 60.4024C127.861 61.4983 127.495 61.9731 127.181 62.1134C126.312 62.5025 125.536 62.4821 125.04 62.2863C124.614 62.1179 124.276 61.7877 124.168 61.1168C124.035 60.2862 124.254 59.7745 124.551 59.4427ZM132.07 59.9634C132.047 60.3011 132.008 60.6724 131.943 61.0592C131.71 62.438 131.024 64.7224 128.796 65.72C127.124 66.4688 125.234 66.6113 123.59 65.9621C121.876 65.2857 120.598 63.804 120.267 61.7446C119.961 59.845 120.444 58.1047 121.606 56.8068C122.735 55.5464 124.345 54.8749 126.026 54.7182C127.887 54.5448 129.319 55.1706 130.263 55.8386C130.44 55.9642 130.601 56.0914 130.745 56.2154L148.319 52.0845L169.912 64.3926L167.238 67.7897L147.711 56.2868L132.07 59.9634Z" fill="white"/>
<path fill-rule="evenodd" clip-rule="evenodd" d="M41.4199 180.258C41.3332 179.77 41.4419 179.086 41.9346 178.321C42.3292 177.708 42.8255 177.448 43.238 177.325C43.3088 177.304 43.3769 177.287 43.4409 177.273C43.7082 177.486 44.0316 177.77 44.3313 178.099C45.08 178.92 45.2276 179.501 45.1448 179.835C44.915 180.759 44.4203 181.357 43.9602 181.626C43.5644 181.858 43.0963 181.92 42.5017 181.591C41.7655 181.184 41.4978 180.696 41.4199 180.258ZM46.4683 174.661C46.72 174.887 46.9879 175.147 47.2521 175.437C48.1939 176.47 49.5688 178.419 48.9798 180.788C48.5377 182.566 47.4838 184.142 45.9584 185.036C44.3687 185.967 42.4144 186.059 40.5891 185.049C38.9055 184.118 37.8339 182.664 37.5291 180.949C37.2331 179.284 37.6981 177.602 38.6115 176.182C39.6231 174.61 40.9988 173.869 42.1069 173.538C42.3153 173.476 42.5145 173.428 42.7011 173.391L50.29 157.012L73.2976 147.608L74.3216 151.809L53.2227 160.082L46.4683 174.661Z" fill="white"/>
<path fill-rule="evenodd" clip-rule="evenodd" d="M66.6004 339.402C66.1731 339.151 65.7247 338.624 65.4633 337.752C65.254 337.054 65.3794 336.508 65.554 336.114C65.584 336.047 65.6154 335.984 65.6467 335.927C65.9822 335.862 66.4079 335.8 66.8528 335.786C67.9636 335.752 68.5013 336.017 68.7005 336.297C69.2532 337.072 69.3861 337.837 69.2918 338.362C69.2108 338.813 68.9535 339.209 68.3171 339.447C67.529 339.742 66.9842 339.628 66.6004 339.402ZM65.6297 331.928C65.9652 331.883 66.337 331.849 66.7291 331.837C68.1266 331.793 70.5014 332.015 71.9183 334.003C72.9818 335.495 73.4938 337.32 73.1814 339.06C72.8558 340.874 71.6549 342.418 69.7011 343.149C67.899 343.823 66.0975 343.692 64.5962 342.808C63.1382 341.95 62.1625 340.503 61.6779 338.887C61.1412 337.096 61.4727 335.569 61.9416 334.512C62.0298 334.313 62.1228 334.13 62.216 333.965L54.7043 317.55L62.5175 293.955L66.3748 295.907L58.9439 317.317L65.6297 331.928Z" fill="white"/>
<path fill-rule="evenodd" clip-rule="evenodd" d="M189.276 427.881C188.786 427.958 188.105 427.835 187.35 427.327C186.745 426.92 186.495 426.419 186.381 426.004C186.361 425.933 186.345 425.864 186.333 425.8C186.551 425.537 186.842 425.219 187.177 424.926C188.013 424.195 188.597 424.059 188.929 424.149C189.848 424.397 190.436 424.904 190.696 425.369C190.92 425.77 190.972 426.239 190.631 426.827C190.209 427.555 189.716 427.812 189.276 427.881ZM183.783 422.72C184.014 422.473 184.28 422.21 184.575 421.952C185.627 421.031 187.604 419.697 189.96 420.334C191.729 420.812 193.283 421.898 194.145 423.441C195.044 425.05 195.096 427.005 194.05 428.81C193.084 430.474 191.609 431.516 189.888 431.785C188.216 432.047 186.544 431.548 185.144 430.606C183.593 429.563 182.88 428.172 182.572 427.057C182.514 426.848 182.47 426.648 182.437 426.46L166.215 418.539L157.283 395.344L161.504 394.406L169.345 415.669L183.783 422.72Z" fill="white"/>
<path d="M490.876 201.991V114.661H519.172C529.895 114.661 536.884 115.098 540.141 115.972C545.145 117.282 549.335 120.142 552.71 124.55C556.086 128.918 557.774 134.577 557.774 141.527C557.774 146.889 556.801 151.396 554.855 155.05C552.909 158.703 550.427 161.583 547.408 163.688C544.43 165.753 541.392 167.123 538.294 167.798C534.085 168.632 527.989 169.049 520.006 169.049H508.509V201.991H490.876ZM508.509 129.435V154.216H518.159C525.109 154.216 529.756 153.759 532.099 152.846C534.442 151.932 536.269 150.503 537.579 148.557C538.93 146.611 539.605 144.347 539.605 141.766C539.605 138.589 538.671 135.967 536.805 133.902C534.938 131.837 532.575 130.547 529.716 130.03C527.611 129.633 523.382 129.435 517.028 129.435H508.509Z" fill="#427EEE"/>
<path d="M587.59 114.661V146.77C592.991 140.455 599.444 137.298 606.95 137.298C610.802 137.298 614.277 138.013 617.375 139.442C620.473 140.872 622.796 142.699 624.345 144.923C625.933 147.147 627.006 149.609 627.561 152.31C628.157 155.01 628.455 159.2 628.455 164.879V201.991H611.716V168.572C611.716 161.94 611.398 157.73 610.763 155.943C610.127 154.156 608.995 152.746 607.367 151.714C605.779 150.642 603.773 150.105 601.351 150.105C598.571 150.105 596.089 150.781 593.904 152.131C591.72 153.481 590.112 155.526 589.079 158.267C588.086 160.967 587.59 164.978 587.59 170.3V201.991H570.851V114.661H587.59Z" fill="#427EEE"/>
<path d="M644.272 130.149V114.661H661.011V130.149H644.272ZM644.272 201.991V138.728H661.011V201.991H644.272Z" fill="#427EEE"/>
<path d="M677.007 201.991V114.661H693.746V201.991H677.007Z" fill="#427EEE"/>
<path d="M722.252 158.028L707.062 155.288C708.769 149.172 711.708 144.645 715.878 141.706C720.048 138.767 726.243 137.298 734.464 137.298C741.93 137.298 747.49 138.191 751.144 139.979C754.797 141.726 757.359 143.97 758.828 146.71C760.337 149.41 761.092 154.395 761.092 161.662L760.913 181.201C760.913 186.761 761.171 190.871 761.688 193.532C762.244 196.153 763.256 198.973 764.726 201.991H748.165C747.728 200.879 747.192 199.231 746.557 197.047C746.279 196.054 746.08 195.399 745.961 195.081C743.102 197.861 740.044 199.946 736.787 201.336C733.531 202.726 730.056 203.421 726.362 203.421C719.849 203.421 714.707 201.654 710.934 198.119C707.201 194.585 705.334 190.117 705.334 184.716C705.334 181.142 706.188 177.965 707.896 175.185C709.603 172.365 711.986 170.22 715.044 168.751C718.142 167.242 722.59 165.931 728.388 164.819C736.211 163.35 741.632 161.98 744.651 160.709V159.041C744.651 155.824 743.856 153.541 742.268 152.19C740.679 150.8 737.681 150.105 733.273 150.105C730.294 150.105 727.971 150.701 726.303 151.893C724.635 153.044 723.285 155.09 722.252 158.028ZM744.651 171.61C742.506 172.325 739.11 173.179 734.464 174.172C729.818 175.165 726.779 176.138 725.35 177.091C723.165 178.64 722.073 180.605 722.073 182.988C722.073 185.331 722.947 187.357 724.694 189.064C726.442 190.772 728.666 191.626 731.366 191.626C734.385 191.626 737.264 190.633 740.004 188.647C742.029 187.138 743.36 185.292 743.995 183.107C744.432 181.678 744.651 178.957 744.651 174.946V171.61Z" fill="#427EEE"/>
<path d="M833.977 201.991H817.238V169.704C817.238 162.873 816.881 158.465 816.166 156.479C815.451 154.454 814.279 152.885 812.651 151.773C811.063 150.661 809.137 150.105 806.873 150.105C803.974 150.105 801.373 150.9 799.069 152.488C796.766 154.077 795.177 156.182 794.304 158.803C793.47 161.424 793.053 166.269 793.053 173.338V201.991H776.313V138.728H791.861V148.021C797.381 140.872 804.331 137.298 812.711 137.298C816.404 137.298 819.78 137.973 822.838 139.323C825.896 140.634 828.199 142.322 829.748 144.387C831.336 146.452 832.429 148.795 833.024 151.416C833.66 154.037 833.977 157.79 833.977 162.675V201.991Z" fill="#427EEE"/>
<path d="M878.805 138.728V152.071H867.368V177.567C867.368 182.73 867.467 185.748 867.666 186.622C867.904 187.456 868.4 188.151 869.155 188.707C869.949 189.263 870.902 189.541 872.014 189.541C873.563 189.541 875.807 189.005 878.746 187.933L880.175 200.919C876.283 202.587 871.875 203.421 866.951 203.421C863.933 203.421 861.212 202.924 858.79 201.932C856.367 200.899 854.58 199.589 853.428 198C852.316 196.372 851.542 194.188 851.105 191.447C850.748 189.501 850.569 185.57 850.569 179.652V152.071H842.884V138.728H850.569V126.158L867.368 116.389V138.728H878.805Z" fill="#427EEE"/>
<path d="M905.881 114.661V146.77C911.282 140.455 917.736 137.298 925.241 137.298C929.094 137.298 932.569 138.013 935.666 139.442C938.764 140.872 941.087 142.699 942.636 144.923C944.225 147.147 945.297 149.609 945.853 152.31C946.449 155.01 946.746 159.2 946.746 164.879V201.991H930.007V168.572C930.007 161.94 929.689 157.73 929.054 155.943C928.419 154.156 927.287 152.746 925.658 151.714C924.07 150.642 922.064 150.105 919.642 150.105C916.862 150.105 914.38 150.781 912.196 152.131C910.011 153.481 908.403 155.526 907.37 158.267C906.378 160.967 905.881 164.978 905.881 170.3V201.991H889.142V114.661H905.881Z" fill="#427EEE"/>
<path d="M978.588 201.991H961.849V138.728H977.396V147.723C980.057 143.473 982.44 140.674 984.545 139.323C986.689 137.973 989.112 137.298 991.812 137.298C995.625 137.298 999.299 138.35 1002.83 140.455L997.65 155.05C994.831 153.223 992.21 152.31 989.787 152.31C987.444 152.31 985.458 152.965 983.83 154.275C982.202 155.546 980.911 157.869 979.958 161.245C979.045 164.621 978.588 171.69 978.588 182.452V201.991Z" fill="#427EEE"/>
<path d="M1005.01 169.466C1005.01 163.906 1006.38 158.525 1009.12 153.322C1011.86 148.12 1015.73 144.148 1020.74 141.408C1025.78 138.668 1031.4 137.298 1037.59 137.298C1047.16 137.298 1055.01 140.415 1061.12 146.65C1067.24 152.846 1070.3 160.689 1070.3 170.181C1070.3 179.752 1067.2 187.694 1061 194.009C1054.85 200.284 1047.09 203.421 1037.71 203.421C1031.91 203.421 1026.37 202.11 1021.09 199.489C1015.85 196.868 1011.86 193.036 1009.12 187.992C1006.38 182.909 1005.01 176.733 1005.01 169.466ZM1022.16 170.359C1022.16 176.634 1023.65 181.439 1026.63 184.775C1029.61 188.111 1033.28 189.779 1037.65 189.779C1042.02 189.779 1045.68 188.111 1048.61 184.775C1051.59 181.439 1053.08 176.594 1053.08 170.24C1053.08 164.045 1051.59 159.279 1048.61 155.943C1045.68 152.607 1042.02 150.939 1037.65 150.939C1033.28 150.939 1029.61 152.607 1026.63 155.943C1023.65 159.279 1022.16 164.085 1022.16 170.359Z" fill="#427EEE"/>
<path d="M1081.77 138.728H1097.37V148.021C1099.4 144.843 1102.14 142.262 1105.59 140.276C1109.05 138.291 1112.88 137.298 1117.09 137.298C1124.44 137.298 1130.67 140.177 1135.8 145.936C1140.92 151.694 1143.48 159.716 1143.48 170.002C1143.48 180.566 1140.9 188.786 1135.74 194.664C1130.57 200.502 1124.32 203.421 1116.97 203.421C1113.48 203.421 1110.3 202.726 1107.44 201.336C1104.62 199.946 1101.64 197.563 1098.51 194.188V226.058H1081.77V138.728ZM1098.33 169.287C1098.33 176.396 1099.74 181.658 1102.56 185.073C1105.38 188.449 1108.81 190.137 1112.86 190.137C1116.75 190.137 1119.99 188.588 1122.57 185.49C1125.15 182.353 1126.44 177.23 1126.44 170.121C1126.44 163.489 1125.11 158.564 1122.45 155.348C1119.79 152.131 1116.5 150.522 1112.56 150.522C1108.47 150.522 1105.08 152.111 1102.38 155.288C1099.68 158.425 1098.33 163.092 1098.33 169.287Z" fill="#427EEE"/>
<path d="M1147.68 138.728H1165.49L1180.62 183.644L1195.4 138.728H1212.73L1190.39 199.608L1186.4 210.629C1184.93 214.322 1183.52 217.142 1182.17 219.088C1180.86 221.034 1179.33 222.603 1177.59 223.794C1175.88 225.025 1173.75 225.978 1171.21 226.653C1168.71 227.328 1165.87 227.666 1162.69 227.666C1159.48 227.666 1156.32 227.328 1153.22 226.653L1151.73 213.548C1154.35 214.064 1156.72 214.322 1158.82 214.322C1162.71 214.322 1165.59 213.171 1167.46 210.867C1169.33 208.604 1170.76 205.704 1171.75 202.17L1147.68 138.728Z" fill="#427EEE"/>
<path d="M490.34 343.991V256.661H507.973V343.991H490.34Z" fill="#427EEE"/>
<path d="M581.037 343.991H564.298V311.704C564.298 304.873 563.94 300.465 563.226 298.479C562.511 296.454 561.339 294.885 559.711 293.773C558.122 292.661 556.196 292.105 553.933 292.105C551.033 292.105 548.432 292.9 546.129 294.488C543.825 296.077 542.237 298.182 541.363 300.803C540.529 303.424 540.112 308.269 540.112 315.338V343.991H523.373V280.728H538.921V290.021C544.441 282.872 551.391 279.298 559.77 279.298C563.464 279.298 566.839 279.973 569.897 281.323C572.955 282.634 575.259 284.322 576.808 286.387C578.396 288.452 579.488 290.795 580.084 293.416C580.719 296.037 581.037 299.79 581.037 304.675V343.991Z" fill="#427EEE"/>
<path d="M625.865 280.728V294.071H614.427V319.567C614.427 324.73 614.527 327.748 614.725 328.622C614.964 329.456 615.46 330.151 616.215 330.707C617.009 331.263 617.962 331.541 619.074 331.541C620.623 331.541 622.867 331.005 625.805 329.933L627.235 342.919C623.343 344.587 618.935 345.421 614.01 345.421C610.992 345.421 608.272 344.924 605.849 343.932C603.427 342.899 601.64 341.589 600.488 340C599.376 338.372 598.602 336.188 598.165 333.447C597.807 331.501 597.629 327.57 597.629 321.652V294.071H589.944V280.728H597.629V268.158L614.427 258.389V280.728H625.865Z" fill="#427EEE"/>
<path d="M672.897 323.856L689.577 326.656C687.432 332.772 684.037 337.438 679.39 340.655C674.783 343.832 669.005 345.421 662.055 345.421C651.054 345.421 642.913 341.827 637.631 334.639C633.461 328.88 631.376 321.613 631.376 312.836C631.376 302.352 634.117 294.151 639.597 288.233C645.078 282.276 652.008 279.298 660.387 279.298C669.799 279.298 677.226 282.415 682.666 288.65C688.107 294.846 690.708 304.357 690.47 317.185H648.533C648.652 322.149 650.002 326.021 652.583 328.801C655.165 331.541 658.382 332.911 662.234 332.911C664.855 332.911 667.059 332.196 668.846 330.767C670.633 329.337 671.983 327.034 672.897 323.856ZM673.85 306.938C673.731 302.093 672.48 298.42 670.097 295.918C667.714 293.376 664.815 292.105 661.4 292.105C657.746 292.105 654.728 293.436 652.345 296.097C649.962 298.757 648.791 302.371 648.83 306.938H673.85Z" fill="#427EEE"/>
<path d="M718.976 343.991H702.236V280.728H717.784V289.723C720.445 285.473 722.828 282.674 724.933 281.323C727.077 279.973 729.5 279.298 732.2 279.298C736.013 279.298 739.686 280.35 743.221 282.455L738.038 297.05C735.219 295.223 732.597 294.31 730.175 294.31C727.832 294.31 725.846 294.965 724.218 296.275C722.59 297.546 721.299 299.869 720.346 303.245C719.432 306.621 718.976 313.69 718.976 324.452V343.991Z" fill="#427EEE"/>
<path d="M806.813 343.991H790.074V311.704C790.074 304.873 789.717 300.465 789.002 298.479C788.287 296.454 787.115 294.885 785.487 293.773C783.899 292.661 781.973 292.105 779.709 292.105C776.81 292.105 774.209 292.9 771.905 294.488C769.602 296.077 768.013 298.182 767.139 300.803C766.306 303.424 765.889 308.269 765.889 315.338V343.991H749.149V280.728H764.697V290.021C770.217 282.872 777.167 279.298 785.547 279.298C789.24 279.298 792.616 279.973 795.674 281.323C798.732 282.634 801.035 284.322 802.584 286.387C804.172 288.452 805.264 290.795 805.86 293.416C806.496 296.037 806.813 299.79 806.813 304.675V343.991Z" fill="#427EEE"/>
<path d="M835.14 300.028L819.95 297.288C821.657 291.172 824.596 286.645 828.766 283.706C832.936 280.767 839.131 279.298 847.352 279.298C854.818 279.298 860.378 280.191 864.032 281.979C867.685 283.726 870.247 285.97 871.716 288.71C873.225 291.41 873.98 296.395 873.98 303.662L873.801 323.201C873.801 328.761 874.059 332.871 874.576 335.532C875.132 338.153 876.144 340.973 877.614 343.991H861.053C860.616 342.879 860.08 341.231 859.445 339.047C859.167 338.054 858.968 337.399 858.849 337.081C855.99 339.861 852.932 341.946 849.675 343.336C846.419 344.726 842.944 345.421 839.251 345.421C832.738 345.421 827.595 343.654 823.822 340.119C820.089 336.585 818.222 332.117 818.222 326.716C818.222 323.142 819.076 319.965 820.784 317.185C822.491 314.365 824.874 312.22 827.932 310.751C831.03 309.242 835.478 307.931 841.276 306.819C849.1 305.35 854.52 303.98 857.539 302.709V301.041C857.539 297.824 856.744 295.541 855.156 294.19C853.567 292.8 850.569 292.105 846.161 292.105C843.182 292.105 840.859 292.701 839.191 293.893C837.523 295.044 836.173 297.09 835.14 300.028ZM857.539 313.61C855.394 314.325 851.999 315.179 847.352 316.172C842.706 317.165 839.668 318.138 838.238 319.091C836.054 320.64 834.961 322.605 834.961 324.988C834.961 327.331 835.835 329.357 837.583 331.064C839.33 332.772 841.554 333.626 844.254 333.626C847.273 333.626 850.152 332.633 852.892 330.647C854.918 329.138 856.248 327.292 856.883 325.107C857.32 323.678 857.539 320.957 857.539 316.946V313.61Z" fill="#427EEE"/>
<path d="M918.331 280.728V294.071H906.894V319.567C906.894 324.73 906.993 327.748 907.192 328.622C907.43 329.456 907.926 330.151 908.681 330.707C909.475 331.263 910.428 331.541 911.54 331.541C913.089 331.541 915.333 331.005 918.272 329.933L919.701 342.919C915.81 344.587 911.401 345.421 906.477 345.421C903.459 345.421 900.738 344.924 898.316 343.932C895.893 342.899 894.106 341.589 892.954 340C891.842 338.372 891.068 336.188 890.631 333.447C890.274 331.501 890.095 327.57 890.095 321.652V294.071H882.41V280.728H890.095V268.158L906.894 258.389V280.728H918.331Z" fill="#427EEE"/>
<path d="M928.728 272.149V256.661H945.467V272.149H928.728ZM928.728 343.991V280.728H945.467V343.991H928.728Z" fill="#427EEE"/>
<path d="M957.591 311.466C957.591 305.906 958.961 300.525 961.701 295.322C964.441 290.12 968.313 286.148 973.317 283.408C978.361 280.668 983.98 279.298 990.176 279.298C999.746 279.298 1007.59 282.415 1013.71 288.65C1019.82 294.846 1022.88 302.689 1022.88 312.181C1022.88 321.752 1019.78 329.694 1013.59 336.009C1007.43 342.284 999.667 345.421 990.295 345.421C984.496 345.421 978.956 344.11 973.675 341.489C968.432 338.868 964.441 335.036 961.701 329.992C958.961 324.909 957.591 318.733 957.591 311.466ZM974.747 312.359C974.747 318.634 976.236 323.439 979.215 326.775C982.193 330.111 985.867 331.779 990.235 331.779C994.604 331.779 998.257 330.111 1001.2 326.775C1004.17 323.439 1005.66 318.594 1005.66 312.24C1005.66 306.045 1004.17 301.279 1001.2 297.943C998.257 294.607 994.604 292.939 990.235 292.939C985.867 292.939 982.193 294.607 979.215 297.943C976.236 301.279 974.747 306.085 974.747 312.359Z" fill="#427EEE"/>
<path d="M1092.37 343.991H1075.63V311.704C1075.63 304.873 1075.27 300.465 1074.56 298.479C1073.84 296.454 1072.67 294.885 1071.04 293.773C1069.45 292.661 1067.53 292.105 1065.27 292.105C1062.37 292.105 1059.76 292.9 1057.46 294.488C1055.16 296.077 1053.57 298.182 1052.7 300.803C1051.86 303.424 1051.44 308.269 1051.44 315.338V343.991H1034.71V280.728H1050.25V290.021C1055.77 282.872 1062.72 279.298 1071.1 279.298C1074.8 279.298 1078.17 279.973 1081.23 281.323C1084.29 282.634 1086.59 284.322 1088.14 286.387C1089.73 288.452 1090.82 290.795 1091.42 293.416C1092.05 296.037 1092.37 299.79 1092.37 304.675V343.991Z" fill="#427EEE"/>
<path d="M1120.7 300.028L1105.51 297.288C1107.21 291.172 1110.15 286.645 1114.32 283.706C1118.49 280.767 1124.69 279.298 1132.91 279.298C1140.37 279.298 1145.93 280.191 1149.59 281.979C1153.24 283.726 1155.8 285.97 1157.27 288.71C1158.78 291.41 1159.54 296.395 1159.54 303.662L1159.36 323.201C1159.36 328.761 1159.62 332.871 1160.13 335.532C1160.69 338.153 1161.7 340.973 1163.17 343.991H1146.61C1146.17 342.879 1145.64 341.231 1145 339.047C1144.72 338.054 1144.52 337.399 1144.41 337.081C1141.55 339.861 1138.49 341.946 1135.23 343.336C1131.98 344.726 1128.5 345.421 1124.81 345.421C1118.29 345.421 1113.15 343.654 1109.38 340.119C1105.65 336.585 1103.78 332.117 1103.78 326.716C1103.78 323.142 1104.63 319.965 1106.34 317.185C1108.05 314.365 1110.43 312.22 1113.49 310.751C1116.59 309.242 1121.03 307.931 1126.83 306.819C1134.66 305.35 1140.08 303.98 1143.09 302.709V301.041C1143.09 297.824 1142.3 295.541 1140.71 294.19C1139.12 292.8 1136.13 292.105 1131.72 292.105C1128.74 292.105 1126.42 292.701 1124.75 293.893C1123.08 295.044 1121.73 297.09 1120.7 300.028ZM1143.09 313.61C1140.95 314.325 1137.55 315.179 1132.91 316.172C1128.26 317.165 1125.22 318.138 1123.79 319.091C1121.61 320.64 1120.52 322.605 1120.52 324.988C1120.52 327.331 1121.39 329.357 1123.14 331.064C1124.89 332.772 1127.11 333.626 1129.81 333.626C1132.83 333.626 1135.71 332.633 1138.45 330.647C1140.47 329.138 1141.8 327.292 1142.44 325.107C1142.88 323.678 1143.09 320.957 1143.09 316.946V313.61Z" fill="#427EEE"/>
<path d="M1174.88 343.991V256.661H1191.62V343.991H1174.88Z" fill="#427EEE"/>
</svg>
