<svg width="200" height="156" viewBox="0 0 200 156" fill="none" xmlns="http://www.w3.org/2000/svg">
<path d="M33.8872 23.9769C44.7157 15.7213 64.7485 1.96133 95.0684 3.06224C123.764 3.06234 147.045 6.9039 162.205 20.124C191.254 45.4559 172.546 76.1333 171.951 83.4184C169.887 108.762 185.487 112.589 177.907 134.604C170.327 156.62 115.265 141.209 101.566 141.209C86.947 141.209 82.6156 155.518 62.0414 153.867C41.4672 152.216 32.6121 136.445 26.8487 118.643C12.7716 75.1625 23.0587 32.2326 33.8872 23.9769Z" fill="#F2F6F9"/>
<path d="M127.846 151.796L50.849 130.103C50.1277 129.897 49.5172 129.414 49.1503 128.759C48.7835 128.105 48.69 127.332 48.8904 126.61L77.4471 25.2555C77.6532 24.5342 78.136 23.9236 78.7903 23.5568C79.4446 23.1899 80.2174 23.0965 80.9402 23.2969L157.937 44.9893C158.659 45.1954 159.269 45.6783 159.636 46.3327C160.003 46.9872 160.096 47.7601 159.896 48.483L131.339 149.836C131.133 150.558 130.65 151.169 129.996 151.536C129.342 151.902 128.569 151.996 127.846 151.796Z" fill="#0B5394"/>
<path d="M132.755 58.4867L95.3747 47.9548C94.841 47.8028 94.3891 47.4457 94.1178 46.9615C93.8464 46.4773 93.7777 45.9055 93.9267 45.3708C94.0786 44.837 94.4357 44.3849 94.9198 44.1135C95.404 43.842 95.9759 43.7733 96.5107 43.9222L133.891 54.4559C134.425 54.608 134.877 54.9651 135.148 55.4492C135.42 55.9334 135.488 56.5053 135.339 57.0399C135.187 57.5734 134.83 58.025 134.346 58.2961C133.862 58.5671 133.29 58.6357 132.755 58.4867Z" fill="#206FB6"/>
<path d="M140.202 73.2383L81.32 56.6489C80.7863 56.4968 80.3344 56.1397 80.0631 55.6555C79.7917 55.1714 79.723 54.5995 79.872 54.0649C80.024 53.531 80.3813 53.079 80.8656 52.8076C81.3499 52.5363 81.9219 52.4677 82.4566 52.6168L141.339 69.2062C141.873 69.3583 142.325 69.7154 142.596 70.1996C142.867 70.6837 142.936 71.2556 142.787 71.7902C142.635 72.3241 142.278 72.7761 141.793 73.0474C141.309 73.3188 140.737 73.3874 140.202 73.2383Z" fill="#206FB6"/>
<path d="M137.587 82.5216L78.7049 65.9322C78.171 65.7802 77.7191 65.423 77.4477 64.9387C77.1764 64.4544 77.1078 63.8823 77.2569 63.3476C77.409 62.8139 77.7661 62.362 78.2502 62.0906C78.7344 61.8193 79.3063 61.7506 79.8409 61.8996L138.723 78.4889C139.257 78.641 139.709 78.9982 139.98 79.4825C140.252 79.9668 140.32 80.5388 140.171 81.0735C140.019 81.6073 139.662 82.0592 139.178 82.3305C138.694 82.6018 138.122 82.6705 137.587 82.5216Z" fill="#206FB6"/>
<path d="M134.972 91.8046L76.0896 75.2152C75.5558 75.0631 75.1039 74.706 74.8326 74.2219C74.5613 73.7377 74.4926 73.1659 74.6415 72.6312C74.7934 72.0974 75.1505 71.6454 75.6347 71.374C76.1189 71.1027 76.6909 71.0341 77.2255 71.1832L136.108 87.7726C136.642 87.9245 137.094 88.2816 137.365 88.7658C137.636 89.25 137.705 89.8219 137.556 90.3566C137.404 90.8904 137.047 91.3424 136.563 91.6138C136.078 91.8851 135.507 91.9537 134.972 91.8046Z" fill="#206FB6"/>
<path d="M132.357 101.087L73.4743 84.498C72.9406 84.3459 72.4887 83.9888 72.2173 83.5046C71.946 83.0205 71.8773 82.4486 72.0263 81.914C72.1785 81.3802 72.5357 80.9283 73.02 80.657C73.5042 80.3857 74.0762 80.317 74.6109 80.4659L133.493 97.0553C134.027 97.2073 134.479 97.5645 134.75 98.0486C135.021 98.5328 135.09 99.1046 134.941 99.6393C134.789 100.173 134.432 100.625 133.948 100.896C133.463 101.168 132.891 101.236 132.357 101.087Z" fill="#206FB6"/>
<path d="M129.741 110.369L70.8591 93.7795C70.3253 93.6274 69.8734 93.2703 69.6021 92.7861C69.3308 92.302 69.2621 91.7301 69.411 91.1955C69.563 90.6616 69.92 90.2096 70.4042 89.9381C70.8884 89.6667 71.4603 89.5979 71.995 89.7468L130.877 106.336C131.411 106.488 131.863 106.845 132.135 107.33C132.406 107.814 132.474 108.386 132.325 108.921C132.173 109.455 131.816 109.906 131.332 110.178C130.848 110.449 130.276 110.518 129.741 110.369Z" fill="#206FB6"/>
<path d="M127.126 119.656L68.244 103.067C67.7101 102.915 67.2582 102.558 66.9868 102.074C66.7155 101.589 66.6468 101.017 66.7959 100.483C66.9479 99.9489 67.305 99.4969 67.7892 99.2256C68.2734 98.9542 68.8453 98.8856 69.3799 99.0347L128.262 115.624C128.796 115.776 129.248 116.133 129.52 116.617C129.791 117.102 129.859 117.673 129.71 118.208C129.558 118.742 129.201 119.194 128.717 119.465C128.233 119.737 127.661 119.805 127.126 119.656Z" fill="#206FB6"/>
<path d="M124.511 128.936L65.6285 112.348C65.0948 112.195 64.643 111.838 64.3717 111.354C64.1004 110.87 64.0317 110.298 64.1804 109.763C64.3326 109.229 64.6899 108.777 65.1741 108.506C65.6584 108.235 66.2303 108.166 66.7651 108.315L125.647 124.904C126.181 125.057 126.633 125.414 126.904 125.898C127.175 126.382 127.244 126.954 127.095 127.488C126.943 128.022 126.586 128.474 126.102 128.746C125.618 129.017 125.046 129.086 124.511 128.936Z" fill="#206FB6"/>
<path d="M121.896 138.22L63.0134 121.63C62.4796 121.478 62.0277 121.121 61.7564 120.637C61.4851 120.153 61.4164 119.581 61.5653 119.046C61.7173 118.513 62.0743 118.061 62.5585 117.789C63.0427 117.518 63.6146 117.449 64.1493 117.598L123.032 134.187C123.566 134.339 124.018 134.696 124.289 135.181C124.56 135.665 124.629 136.237 124.48 136.772C124.328 137.305 123.97 137.757 123.486 138.029C123.002 138.3 122.43 138.369 121.896 138.22Z" fill="#206FB6"/>
<path d="M122.755 26.7029L58.1654 19.9712C57.5639 19.9084 56.9558 19.9647 56.3761 20.1369C55.7963 20.3091 55.2561 20.5938 54.7864 20.9748C54.3167 21.3558 53.9267 21.8256 53.6386 22.3574C53.3505 22.8891 53.1699 23.4725 53.1073 24.074L42.5521 125.342C42.4895 125.944 42.546 126.552 42.7185 127.132C42.891 127.712 43.1761 128.252 43.5574 128.722C43.9388 129.192 44.409 129.582 44.9411 129.87C45.4732 130.158 46.0569 130.338 46.6587 130.4L125.2 138.586C125.802 138.649 126.41 138.593 126.99 138.42C127.569 138.248 128.109 137.963 128.579 137.582C129.049 137.201 129.439 136.732 129.727 136.2C130.015 135.668 130.196 135.085 130.258 134.483L139.356 47.167L122.755 26.7029Z" fill="#96B3CD"/>
<path d="M120.229 24.757L55.6387 18.0248C55.0369 17.9621 54.4286 18.0187 53.8487 18.1912C53.2688 18.3637 52.7285 18.6487 52.2588 19.0301C51.7891 19.4115 51.3991 19.8816 51.1112 20.4138C50.8232 20.9459 50.6429 21.5295 50.5806 22.1314L40.0248 123.396C39.9621 123.997 40.0187 124.606 40.1912 125.186C40.3637 125.766 40.6487 126.306 41.0301 126.775C41.4114 127.245 41.8816 127.635 42.4138 127.923C42.9459 128.211 43.5295 128.391 44.1314 128.454L122.673 136.64C123.888 136.767 125.103 136.406 126.052 135.636C127 134.867 127.604 133.752 127.731 132.537L136.829 45.2212L120.229 24.757Z" fill="white"/>
<path d="M118.775 38.7088C118.648 39.9236 119.009 41.139 119.779 42.0876C120.549 43.0362 121.663 43.6402 122.878 43.7668L136.83 45.2199L120.229 24.7558L118.775 38.7088Z" fill="#F2F6F9"/>
<path d="M122.156 43.6328L136.584 47.5688L136.829 45.2211L122.156 43.6328Z" fill="#CECECE"/>
<path d="M112.329 46.5239L72.8301 42.4072C72.3172 42.3521 71.8469 42.0963 71.522 41.6956C71.1971 41.2949 71.0439 40.7819 71.0959 40.2686C71.1507 39.7557 71.4064 39.2853 71.807 38.9603C72.2076 38.6353 72.7206 38.4822 73.2338 38.5344L112.732 42.6511C113.245 42.706 113.716 42.9617 114.041 43.3623C114.365 43.7629 114.519 44.2758 114.467 44.789C114.412 45.302 114.156 45.7725 113.756 46.0976C113.355 46.4226 112.842 46.5759 112.329 46.5239Z" fill="#0B5394"/>
<path d="M123.862 61.0114L58.5607 54.2033C58.0477 54.1483 57.5773 53.8925 57.2523 53.4918C56.9274 53.0911 56.7742 52.578 56.8264 52.0647C56.8814 51.5518 57.1371 51.0815 57.5377 50.7566C57.9383 50.4316 58.4512 50.2784 58.9644 50.3305L124.262 57.136C124.775 57.191 125.245 57.4468 125.57 57.8475C125.896 58.2482 126.049 58.7613 125.997 59.2746C125.942 59.7873 125.687 60.2576 125.287 60.583C124.887 60.9083 124.375 61.0623 123.862 61.0114Z" fill="#F2F6F9"/>
<path d="M122.831 70.869L57.5338 64.0628C57.0209 64.0077 56.5507 63.752 56.2257 63.3515C55.9006 62.9509 55.7472 62.4381 55.7989 61.9249C55.854 61.4119 56.1098 60.9416 56.5105 60.6165C56.9112 60.2915 57.4242 60.1382 57.9375 60.19L123.235 66.9962C123.748 67.051 124.218 67.3067 124.543 67.7073C124.869 68.1079 125.022 68.6209 124.97 69.1342C124.915 69.6471 124.659 70.1175 124.258 70.4425C123.858 70.7676 123.345 70.9209 122.831 70.869Z" fill="#F2F6F9"/>
<path d="M121.804 80.7262L56.5065 73.9206C55.9935 73.8655 55.5232 73.6097 55.1981 73.209C54.8731 72.8084 54.7198 72.2954 54.7716 71.782C54.8267 71.2691 55.0826 70.7988 55.4833 70.4739C55.884 70.149 56.3969 69.9958 56.9102 70.0478L122.208 76.8534C122.721 76.9085 123.191 77.1643 123.516 77.565C123.841 77.9657 123.994 78.4787 123.943 78.992C123.887 79.5049 123.632 79.9752 123.231 80.3001C122.83 80.6251 122.317 80.7782 121.804 80.7262Z" fill="#F2F6F9"/>
<path d="M120.777 90.5834L55.4785 83.7777C54.9657 83.7226 54.4955 83.4668 54.1706 83.0663C53.8457 82.6657 53.6924 82.1529 53.7443 81.6397C53.7994 81.1269 54.0551 80.6566 54.4557 80.3316C54.8562 80.0066 55.369 79.8532 55.8822 79.9048L121.18 86.7111C121.693 86.7659 122.164 87.0216 122.489 87.4222C122.814 87.8229 122.967 88.3359 122.915 88.8491C122.86 89.362 122.604 89.8324 122.203 90.1574C121.803 90.4824 121.29 90.6355 120.777 90.5834Z" fill="#F2F6F9"/>
<path d="M119.749 100.441L54.4512 93.6348C53.9384 93.5798 53.4681 93.3241 53.1431 92.9235C52.8182 92.5229 52.665 92.01 52.717 91.4968C52.7718 90.9839 53.0275 90.5135 53.4281 90.1885C53.8287 89.8635 54.3417 89.7104 54.8549 89.7626L120.153 96.5682C120.666 96.6233 121.136 96.8791 121.461 97.2796C121.786 97.6802 121.939 98.193 121.887 98.7062C121.832 99.2191 121.577 99.6894 121.176 100.014C120.776 100.34 120.263 100.493 119.749 100.441Z" fill="#F2F6F9"/>
<path d="M118.722 110.298L53.4239 103.493C52.911 103.438 52.4407 103.182 52.1158 102.781C51.7908 102.381 51.6376 101.868 51.6896 101.355C51.7445 100.842 52.0001 100.371 52.4007 100.046C52.8013 99.721 53.3143 99.5677 53.8276 99.6198L119.124 106.425C119.637 106.48 120.107 106.736 120.432 107.137C120.757 107.537 120.911 108.051 120.859 108.564C120.804 109.077 120.548 109.547 120.148 109.872C119.748 110.196 119.235 110.35 118.722 110.298Z" fill="#F2F6F9"/>
<path d="M110.324 129.441C108.951 129.223 107.672 128.603 106.652 127.659C105.631 126.714 104.913 125.488 104.588 124.136C104.264 122.783 104.348 121.365 104.83 120.061C105.312 118.756 106.169 117.623 107.295 116.806C108.42 115.989 109.763 115.524 111.152 115.47C112.542 115.416 113.917 115.775 115.102 116.502C116.288 117.229 117.231 118.291 117.813 119.554C118.395 120.818 118.589 122.225 118.371 123.598C118.077 125.439 117.064 127.089 115.556 128.184C114.047 129.279 112.166 129.731 110.324 129.441ZM112.29 117.053C111.214 116.882 110.11 117.034 109.12 117.49C108.13 117.946 107.298 118.686 106.728 119.615C106.158 120.544 105.876 121.622 105.919 122.711C105.961 123.8 106.326 124.853 106.966 125.735C107.607 126.617 108.495 127.289 109.517 127.667C110.54 128.044 111.652 128.11 112.712 127.856C113.772 127.602 114.733 127.039 115.473 126.239C116.213 125.438 116.699 124.436 116.87 123.36C117.097 121.916 116.742 120.442 115.884 119.259C115.025 118.077 113.733 117.283 112.29 117.053Z" fill="#F2F6F9"/>
<path d="M121.669 117.543L121.619 117.551C121.054 117.644 120.497 117.778 119.951 117.952L119.159 118.21L118.4 118.512C117.405 118.916 116.441 119.393 115.516 119.938C114.575 120.443 113.714 121.054 112.856 121.672C112.377 122.021 111.915 122.394 111.462 122.778C111.204 122.542 110.938 122.311 110.662 122.089C110.292 121.764 109.873 121.476 109.466 121.18C109.038 120.883 108.591 120.614 108.128 120.375L108.083 120.353C108.063 120.344 108.04 120.341 108.019 120.346C107.997 120.351 107.978 120.362 107.964 120.379C107.949 120.396 107.941 120.417 107.94 120.439C107.938 120.461 107.944 120.483 107.956 120.501C109.038 122.085 110.154 123.643 111.27 125.201C111.3 125.241 111.343 125.268 111.392 125.275C111.441 125.283 111.491 125.272 111.532 125.243C113.257 124.02 114.973 122.785 116.667 121.519L119.219 119.636C120.075 119.015 120.906 118.36 121.751 117.724C121.769 117.711 121.782 117.691 121.788 117.669C121.794 117.648 121.792 117.624 121.783 117.604C121.774 117.583 121.759 117.565 121.739 117.555C121.719 117.544 121.696 117.54 121.674 117.543H121.669Z" fill="#1062AB"/>
</svg>
