<svg width="240" height="234" viewBox="0 0 240 234" fill="none" xmlns="http://www.w3.org/2000/svg">
<path opacity="0.5" d="M146.635 38.6069C149.728 38.6069 152.235 36.0982 152.235 33.0036C152.235 29.9091 149.728 27.4004 146.635 27.4004C143.542 27.4004 141.035 29.9091 141.035 33.0036C141.035 36.0982 143.542 38.6069 146.635 38.6069Z" fill="#52D1BD"/>
<path d="M185.792 70.7561C176.269 42.5561 195.876 23.3839 175.117 8.89718C144.464 -12.4954 46.7001 3.64746 18.6053 68.6776C-7.49497 129.09 35.6719 209.085 105.714 221.284C173.596 233.105 252.963 176.885 238.213 137.897C229.185 114.032 202.8 121.121 185.792 70.7561Z" fill="#F2F6F9"/>
<g style="mix-blend-mode:multiply" opacity="0.2">
<path d="M228.752 82.3764L215.82 64.8784L121.987 50.8198C121.423 50.7349 120.847 50.7621 120.293 50.9C119.739 51.0379 119.217 51.2837 118.758 51.6234C118.299 51.9631 117.911 52.39 117.617 52.8797C117.323 53.3694 117.128 53.9123 117.044 54.4774L96.8256 189.593C96.7407 190.158 96.768 190.734 96.9058 191.289C97.0436 191.843 97.2892 192.365 97.6287 192.824C97.9682 193.284 98.3948 193.671 98.8842 193.966C99.3736 194.26 99.9162 194.455 100.481 194.539L205.225 210.233C205.789 210.317 206.365 210.29 206.919 210.152C207.473 210.014 207.994 209.768 208.453 209.429C208.912 209.089 209.3 208.662 209.594 208.172C209.888 207.683 210.083 207.14 210.167 206.575L228.284 85.4901L228.752 82.3764Z" fill="#3A7EC1"/>
</g>
<path d="M216.907 64.1094L124.11 44.3409C123.552 44.2217 122.975 44.2137 122.414 44.3174C121.852 44.4212 121.317 44.6346 120.838 44.9456C120.359 45.2566 119.946 45.6589 119.623 46.1297C119.299 46.6005 119.072 47.1304 118.953 47.6893L90.5213 181.319C90.4023 181.878 90.3944 182.455 90.4982 183.016C90.602 183.578 90.8154 184.114 91.1262 184.593C91.4371 185.072 91.8393 185.485 92.3098 185.809C92.7803 186.133 93.3099 186.36 93.8684 186.479L197.458 208.544C198.016 208.663 198.593 208.671 199.154 208.568C199.716 208.464 200.251 208.25 200.73 207.939C201.209 207.628 201.622 207.226 201.945 206.755C202.269 206.284 202.496 205.754 202.615 205.196L228.746 82.3645L216.907 64.1094Z" fill="#2B84D5"/>
<path d="M214.611 74.9063C214.492 75.465 214.484 76.0417 214.588 76.6034C214.692 77.1652 214.905 77.701 215.216 78.1801C215.527 78.6593 215.929 79.0725 216.4 79.396C216.87 79.7196 217.4 79.9472 217.958 80.0658L228.749 82.3625L216.908 64.1074L214.611 74.9063Z" fill="#9FCBFF"/>
<path d="M211.74 87.7208L157.126 76.0877C156.788 76.0161 156.468 75.8786 156.184 75.6831C155.9 75.4877 155.657 75.238 155.469 74.9485C155.282 74.659 155.153 74.3353 155.09 73.9959C155.028 73.6565 155.033 73.3082 155.105 72.9707C155.177 72.6331 155.314 72.313 155.509 72.0286C155.705 71.7442 155.954 71.5012 156.243 71.3134C156.533 71.1256 156.856 70.9967 157.195 70.9341C157.535 70.8716 157.883 70.8765 158.22 70.9487L212.834 82.5851C213.171 82.6567 213.491 82.7942 213.775 82.9897C214.06 83.1852 214.303 83.4348 214.49 83.7243C214.678 84.0138 214.807 84.3375 214.869 84.6769C214.932 85.0163 214.927 85.3647 214.855 85.7021C214.783 86.0393 214.645 86.359 214.45 86.643C214.254 86.9269 214.005 87.1696 213.715 87.357C213.426 87.5445 213.103 87.6731 212.764 87.7355C212.425 87.7979 212.077 87.7929 211.74 87.7208Z" fill="#0B5394"/>
<path d="M208.933 100.912L154.318 89.2789C153.98 89.2074 153.66 89.07 153.376 88.8746C153.092 88.6791 152.849 88.4295 152.661 88.14C152.473 87.8504 152.344 87.5267 152.282 87.1873C152.219 86.8479 152.224 86.4994 152.296 86.1619C152.368 85.8243 152.505 85.504 152.7 85.2196C152.896 84.9351 153.145 84.6919 153.435 84.5041C153.724 84.3162 154.047 84.1872 154.387 84.1246C154.726 84.062 155.074 84.0669 155.411 84.1391L210.025 95.7722C210.363 95.8437 210.683 95.9811 210.967 96.1766C211.251 96.372 211.494 96.6217 211.682 96.9112C211.87 97.2007 211.999 97.5245 212.061 97.8639C212.124 98.2033 212.119 98.5517 212.047 98.8892C211.975 99.2268 211.838 99.5469 211.643 99.8314C211.448 100.116 211.198 100.359 210.909 100.547C210.62 100.735 210.296 100.864 209.957 100.926C209.618 100.989 209.27 100.984 208.933 100.912Z" fill="#0B5394"/>
<path d="M206.126 114.103L124.396 96.694C124.059 96.6225 123.739 96.4851 123.454 96.2896C123.17 96.0942 122.927 95.8445 122.739 95.555C122.551 95.2655 122.423 94.9417 122.36 94.6023C122.297 94.2629 122.302 93.9145 122.374 93.577C122.446 93.2393 122.583 92.9191 122.779 92.6346C122.974 92.3501 123.223 92.107 123.513 91.9191C123.802 91.7312 124.126 91.6023 124.465 91.5397C124.804 91.477 125.152 91.482 125.49 91.5542L207.219 108.964C207.557 109.035 207.877 109.173 208.161 109.368C208.445 109.563 208.688 109.813 208.876 110.103C209.064 110.392 209.193 110.716 209.255 111.055C209.318 111.395 209.313 111.743 209.241 112.081C209.169 112.418 209.032 112.739 208.837 113.023C208.641 113.307 208.392 113.551 208.103 113.738C207.813 113.926 207.49 114.055 207.151 114.118C206.811 114.181 206.463 114.176 206.126 114.103Z" fill="#0B5394"/>
<path d="M203.321 127.294L121.591 109.884C121.254 109.813 120.934 109.675 120.65 109.48C120.365 109.285 120.122 109.035 119.934 108.745C119.747 108.456 119.618 108.132 119.555 107.793C119.493 107.453 119.498 107.105 119.57 106.767C119.641 106.43 119.779 106.11 119.974 105.825C120.169 105.541 120.419 105.297 120.708 105.11C120.997 104.922 121.321 104.793 121.66 104.73C121.999 104.667 122.348 104.672 122.685 104.745L204.415 122.154C204.752 122.225 205.072 122.363 205.356 122.558C205.641 122.754 205.884 123.003 206.071 123.293C206.259 123.582 206.388 123.906 206.451 124.246C206.513 124.585 206.508 124.933 206.436 125.271C206.365 125.609 206.227 125.929 206.032 126.213C205.837 126.498 205.587 126.741 205.298 126.929C205.009 127.117 204.685 127.246 204.346 127.308C204.007 127.371 203.658 127.366 203.321 127.294Z" fill="#0B5394"/>
<path d="M179.629 136.036L118.783 123.076C118.445 123.004 118.125 122.867 117.841 122.671C117.557 122.476 117.314 122.226 117.126 121.937C116.938 121.647 116.809 121.324 116.747 120.984C116.684 120.645 116.689 120.296 116.761 119.959C116.833 119.621 116.97 119.301 117.165 119.016C117.361 118.732 117.61 118.489 117.899 118.301C118.189 118.113 118.512 117.984 118.852 117.921C119.191 117.859 119.539 117.864 119.876 117.936L180.722 130.896C181.059 130.968 181.379 131.105 181.664 131.301C181.948 131.496 182.191 131.746 182.379 132.035C182.567 132.325 182.695 132.648 182.758 132.988C182.821 133.327 182.816 133.676 182.743 134.013C182.672 134.351 182.535 134.671 182.339 134.955C182.144 135.24 181.895 135.483 181.605 135.671C181.316 135.859 180.993 135.988 180.654 136.05C180.315 136.113 179.966 136.108 179.629 136.036Z" fill="#B3CEF6"/>
<path d="M197.708 153.676L115.978 136.266C115.641 136.195 115.321 136.057 115.036 135.862C114.752 135.666 114.509 135.417 114.321 135.127C114.133 134.838 114.005 134.514 113.942 134.175C113.879 133.835 113.884 133.487 113.956 133.149C114.028 132.812 114.165 132.491 114.361 132.207C114.556 131.922 114.805 131.679 115.095 131.491C115.384 131.303 115.708 131.175 116.047 131.112C116.386 131.049 116.734 131.054 117.072 131.126L198.801 148.536C199.139 148.607 199.459 148.745 199.743 148.94C200.027 149.136 200.27 149.385 200.458 149.675C200.646 149.964 200.775 150.288 200.837 150.628C200.9 150.967 200.895 151.315 200.823 151.653C200.751 151.991 200.614 152.311 200.419 152.595C200.223 152.88 199.974 153.123 199.685 153.311C199.395 153.499 199.072 153.628 198.733 153.69C198.393 153.753 198.045 153.748 197.708 153.676Z" fill="#0B5394"/>
<path d="M194.903 166.867L113.173 149.458C112.836 149.386 112.516 149.249 112.232 149.053C111.947 148.858 111.704 148.608 111.516 148.319C111.329 148.029 111.2 147.705 111.137 147.366C111.075 147.027 111.08 146.678 111.152 146.341C111.223 146.003 111.361 145.683 111.556 145.398C111.751 145.114 112.001 144.871 112.29 144.683C112.579 144.495 112.903 144.366 113.242 144.303C113.581 144.241 113.93 144.246 114.267 144.318L195.997 161.727C196.334 161.799 196.654 161.936 196.938 162.132C197.223 162.327 197.466 162.577 197.654 162.866C197.841 163.156 197.97 163.479 198.033 163.819C198.095 164.158 198.09 164.507 198.018 164.844C197.947 165.182 197.809 165.502 197.614 165.787C197.419 166.071 197.169 166.314 196.88 166.502C196.591 166.69 196.267 166.819 195.928 166.882C195.589 166.944 195.24 166.939 194.903 166.867Z" fill="#0B5394"/>
<path d="M192.095 180.058L110.365 162.648C110.027 162.577 109.707 162.439 109.423 162.244C109.139 162.048 108.896 161.799 108.708 161.509C108.52 161.22 108.391 160.896 108.329 160.557C108.266 160.217 108.271 159.869 108.343 159.531C108.415 159.194 108.552 158.874 108.748 158.589C108.943 158.305 109.192 158.062 109.482 157.874C109.771 157.686 110.095 157.557 110.434 157.495C110.773 157.432 111.121 157.437 111.458 157.509L193.188 174.919C193.526 174.99 193.846 175.128 194.13 175.323C194.414 175.519 194.657 175.768 194.845 176.058C195.033 176.347 195.162 176.671 195.224 177.01C195.287 177.35 195.282 177.698 195.21 178.036C195.138 178.373 195.001 178.693 194.805 178.978C194.61 179.262 194.361 179.505 194.071 179.693C193.782 179.881 193.458 180.01 193.119 180.072C192.78 180.135 192.432 180.13 192.095 180.058Z" fill="#0B5394"/>
<path d="M189.29 193.249L107.56 175.839C107.223 175.768 106.903 175.631 106.618 175.435C106.334 175.24 106.091 174.99 105.903 174.701C105.715 174.411 105.587 174.087 105.524 173.748C105.461 173.408 105.466 173.06 105.539 172.722C105.61 172.385 105.747 172.065 105.943 171.78C106.138 171.496 106.387 171.252 106.677 171.065C106.966 170.877 107.29 170.748 107.629 170.685C107.968 170.623 108.316 170.627 108.654 170.7L190.384 188.109C190.721 188.181 191.041 188.318 191.325 188.513C191.61 188.709 191.853 188.958 192.04 189.248C192.228 189.538 192.357 189.861 192.42 190.201C192.482 190.54 192.477 190.889 192.405 191.226C192.334 191.564 192.196 191.884 192.001 192.168C191.806 192.453 191.556 192.696 191.267 192.884C190.977 193.072 190.654 193.201 190.315 193.263C189.975 193.326 189.627 193.321 189.29 193.249Z" fill="#0B5394"/>
<path d="M126.38 83.3278L142.759 86.8164C142.988 86.8652 143.225 86.8684 143.456 86.8257C143.686 86.7831 143.906 86.6953 144.103 86.5676C144.3 86.4399 144.469 86.2746 144.602 86.0813C144.735 85.8879 144.829 85.6703 144.877 85.4408L148.033 70.6054C148.082 70.3759 148.085 70.139 148.043 69.9083C148 69.6775 147.912 69.4575 147.785 69.2606C147.657 69.0638 147.492 68.8941 147.299 68.7611C147.106 68.6282 146.888 68.5346 146.659 68.4858L130.282 64.9972C130.052 64.9483 129.816 64.9451 129.585 64.9878C129.354 65.0305 129.135 65.1182 128.938 65.246C128.741 65.3737 128.572 65.539 128.439 65.7323C128.306 65.9257 128.213 66.1433 128.164 66.3728L125.008 81.2082C124.909 81.6713 124.998 82.1547 125.256 82.5522C125.513 82.9496 125.918 83.2286 126.38 83.3278Z" fill="#B3CEF6"/>
<path d="M217.559 79.9814L228.094 85.4436L228.749 82.3643L217.559 79.9814Z" fill="#1E6AD8"/>
<g style="mix-blend-mode:multiply" opacity="0.2">
<path d="M180.983 185.638L156.156 27.685C156.053 27.0241 155.821 26.39 155.473 25.8191C155.125 25.2481 154.668 24.7514 154.128 24.3575C153.587 23.9636 152.975 23.6801 152.325 23.5234C151.675 23.3667 151.001 23.3398 150.341 23.4442L27.8919 42.7205C27.2314 42.8243 26.5979 43.0573 26.0275 43.4062C25.4572 43.7552 24.9611 44.2132 24.5677 44.754C24.1743 45.2949 23.8914 45.9081 23.7349 46.5584C23.5785 47.2088 23.5518 47.8837 23.6562 48.5444L48.4817 206.497C48.5856 207.158 48.8185 207.792 49.1672 208.362C49.516 208.933 49.9737 209.429 50.5142 209.823C51.0547 210.217 51.6674 210.5 52.3174 210.656C52.9673 210.813 53.6417 210.84 54.302 210.735L176.749 191.466C177.41 191.362 178.043 191.128 178.614 190.779C179.184 190.43 179.68 189.971 180.073 189.43C180.466 188.889 180.749 188.275 180.905 187.625C181.061 186.974 181.087 186.299 180.983 185.638Z" fill="#3A7EC1"/>
</g>
<path d="M177.119 190.955L53.787 203.352C53.1219 203.42 52.4501 203.355 51.81 203.163C51.1698 202.97 50.5738 202.653 50.0561 202.23C49.5384 201.807 49.1091 201.286 48.7928 200.697C48.4765 200.108 48.2793 199.462 48.2126 198.796L32.2445 39.7028C32.1773 39.0373 32.2418 38.3651 32.4343 37.7246C32.6268 37.0841 32.9436 36.4878 33.3665 35.9698C33.7893 35.4518 34.3101 35.0223 34.8989 34.7057C35.4878 34.3892 36.1332 34.1918 36.7983 34.125L160.13 21.7315C160.795 21.6647 161.466 21.7296 162.106 21.9225C162.746 22.1153 163.341 22.4323 163.858 22.8555C164.376 23.2786 164.804 23.7995 165.121 24.3885C165.437 24.9775 165.634 25.623 165.7 26.2881L181.672 185.382C181.807 186.725 181.403 188.067 180.549 189.112C179.695 190.157 178.461 190.82 177.119 190.955Z" fill="white"/>
<path d="M149.945 51.1859L84.923 57.7218C84.1126 57.8024 83.3035 57.5579 82.6733 57.0418C82.0431 56.5258 81.6433 55.7806 81.562 54.9698C81.4814 54.159 81.7258 53.3493 82.2415 52.7187C82.7572 52.0881 83.502 51.6882 84.3122 51.6067L149.335 45.0708C150.145 44.99 150.954 45.2345 151.585 45.7506C152.215 46.2666 152.614 47.012 152.696 47.8228C152.776 48.6336 152.532 49.4433 152.016 50.0739C151.5 50.7045 150.756 51.1045 149.945 51.1859Z" fill="#F2F6F9"/>
<path d="M151.523 66.8909L86.5011 73.4268C85.6908 73.5071 84.8818 73.2625 84.2516 72.7465C83.6215 72.2305 83.2217 71.4854 83.1401 70.6748C83.0595 69.8639 83.304 69.0543 83.8197 68.4237C84.3354 67.7931 85.0801 67.3931 85.8904 67.3117L150.913 60.7758C151.723 60.6954 152.532 60.94 153.162 61.456C153.792 61.972 154.192 62.7171 154.274 63.5278C154.354 64.3386 154.11 65.1483 153.594 65.7789C153.079 66.4095 152.334 66.8094 151.523 66.8909Z" fill="#F2F6F9"/>
<path d="M153.099 82.596L55.7901 92.3777C54.9797 92.4581 54.1706 92.2133 53.5404 91.6972C52.9102 91.181 52.5105 90.4357 52.4291 89.6249C52.3486 88.8141 52.593 88.0044 53.1087 87.3738C53.6244 86.7432 54.3692 86.3432 55.1794 86.2618L152.489 76.4809C153.299 76.4003 154.108 76.6449 154.738 77.1609C155.369 77.6769 155.768 78.4222 155.85 79.2329C155.93 80.0437 155.686 80.8534 155.17 81.484C154.654 82.1146 153.91 82.5146 153.099 82.596Z" fill="#F2F6F9"/>
<path d="M154.674 98.3005L57.3683 108.081C56.558 108.162 55.749 107.917 55.1188 107.401C54.4886 106.885 54.0889 106.14 54.0073 105.329C53.9267 104.519 54.1711 103.709 54.6868 103.078C55.2025 102.448 55.9473 102.048 56.7576 101.966L154.06 92.1821C154.87 92.1015 155.679 92.346 156.309 92.8621C156.939 93.3781 157.339 94.1233 157.421 94.9341C157.502 95.7449 157.259 96.555 156.743 97.1862C156.228 97.8175 155.484 98.2182 154.674 98.3005Z" fill="#F2F6F9"/>
<path d="M131.384 116.505L58.9425 123.786C58.1321 123.867 57.3228 123.623 56.6926 123.107C56.0623 122.591 55.6627 121.845 55.5815 121.034C55.5009 120.224 55.7454 119.414 56.261 118.783C56.7767 118.153 57.5215 117.753 58.3318 117.671L130.771 110.387C131.582 110.305 132.392 110.549 133.023 111.065C133.655 111.581 134.055 112.327 134.136 113.139C134.177 113.54 134.137 113.946 134.021 114.333C133.904 114.72 133.713 115.08 133.457 115.392C133.201 115.705 132.887 115.964 132.531 116.155C132.175 116.346 131.785 116.465 131.384 116.505Z" fill="#F2F6F9"/>
<path d="M157.827 129.71L60.5167 139.491C59.7064 139.572 58.8972 139.327 58.267 138.811C57.6368 138.295 57.2371 137.55 57.1557 136.739C57.0751 135.928 57.3196 135.119 57.8353 134.488C58.351 133.857 59.0958 133.457 59.906 133.376L157.215 123.595C158.026 123.515 158.835 123.759 159.465 124.275C160.095 124.791 160.495 125.536 160.576 126.347C160.657 127.158 160.413 127.967 159.897 128.598C159.382 129.229 158.637 129.629 157.827 129.71Z" fill="#F2F6F9"/>
<path d="M159.404 145.418L62.0987 155.199C61.2885 155.279 60.4794 155.035 59.8493 154.519C59.2191 154.003 58.8193 153.258 58.7377 152.447C58.6572 151.636 58.9016 150.826 59.4173 150.196C59.933 149.565 60.6778 149.165 61.488 149.084L158.79 139.296C159.6 139.216 160.41 139.461 161.04 139.977C161.67 140.493 162.07 141.238 162.151 142.049C162.192 142.451 162.153 142.857 162.037 143.243C161.921 143.63 161.73 143.99 161.475 144.303C161.22 144.616 160.906 144.875 160.55 145.066C160.195 145.258 159.805 145.377 159.404 145.418Z" fill="#F2F6F9"/>
<path d="M160.982 161.12L63.6729 170.901C62.8626 170.981 62.0536 170.737 61.4234 170.221C60.7932 169.705 60.3935 168.96 60.3119 168.149C60.2315 167.338 60.4762 166.528 60.992 165.898C61.5078 165.267 62.2527 164.867 63.063 164.786L160.368 155.004C161.179 154.924 161.988 155.169 162.618 155.685C163.248 156.201 163.648 156.946 163.729 157.757C163.81 158.567 163.566 159.376 163.051 160.007C162.536 160.637 161.792 161.038 160.982 161.12Z" fill="#F2F6F9"/>
<path d="M162.561 176.825L65.2511 186.606C64.4408 186.687 63.6316 186.442 63.0014 185.926C62.3712 185.41 61.9715 184.665 61.8901 183.854C61.8095 183.043 62.0539 182.234 62.5696 181.603C63.0853 180.972 63.8301 180.572 64.6404 180.491L161.95 170.709C162.76 170.629 163.569 170.874 164.199 171.39C164.829 171.906 165.229 172.651 165.311 173.461C165.391 174.272 165.147 175.082 164.631 175.713C164.116 176.343 163.371 176.744 162.561 176.825Z" fill="#F2F6F9"/>
<path d="M70.5514 52.979L51.0518 54.9403C49.9035 55.0558 49.0662 56.0808 49.1816 57.2298L50.9559 74.8922C51.0714 76.0412 52.0958 76.879 53.244 76.7635L72.7437 74.8022C73.8919 74.6867 74.7292 73.6616 74.6138 72.5127L72.8395 54.8503C72.7241 53.7013 71.6997 52.8635 70.5514 52.979Z" fill="#34D399"/>
<g style="mix-blend-mode:multiply" opacity="0.2">
<path d="M214.892 224.441L191.926 185.529L189.504 186.96L185.26 179.77C190.407 175.689 194.238 170.181 196.273 163.934C199.19 155.047 198.408 145.001 193.282 136.32C192.273 134.609 191.117 132.989 189.825 131.48C187.046 128.236 183.669 125.555 179.879 123.586C169.918 118.392 157.581 118.307 147.201 124.442C145.715 125.32 144.298 126.31 142.962 127.402C139.662 130.109 136.908 133.422 134.851 137.163C129.354 147.153 129.075 159.683 135.174 170.246C135.23 170.348 135.285 170.445 135.345 170.546C137.087 173.508 139.273 176.185 141.828 178.482C151.337 187.041 165.152 189.555 177.241 184.507L181.484 191.696L179.061 193.126L202.025 232.038C202.563 232.949 203.441 233.61 204.466 233.874C205.49 234.138 206.578 233.984 207.489 233.446L213.485 229.905C214.396 229.367 215.055 228.489 215.319 227.464C215.583 226.44 215.429 225.352 214.892 224.441Z" fill="#3A7EC1"/>
</g>
<path d="M190.191 159.806L129.092 166.122C122.993 155.559 123.272 143.029 128.769 133.039L183.744 127.355C185.035 128.865 186.192 130.484 187.2 132.195C192.327 140.873 193.109 150.919 190.191 159.806Z" fill="white"/>
<path d="M185.357 169.229C182.667 172.901 179.258 175.986 175.337 178.294C162.374 185.952 146.376 183.921 135.742 174.357L185.357 169.229Z" fill="white"/>
<path d="M183.74 127.356L128.766 133.04C130.823 129.299 133.576 125.985 136.877 123.279L173.793 119.462C177.584 121.432 180.961 124.112 183.74 127.356Z" fill="#E4ECF9"/>
<path d="M190.191 159.806C189.088 163.183 187.455 166.364 185.355 169.229L135.744 174.357C133.189 172.06 131.002 169.384 129.26 166.422C129.201 166.321 129.146 166.223 129.09 166.123L190.191 159.806Z" fill="#E4ECF9"/>
<path d="M178.005 173.681L169.984 178.42L176.312 189.143L184.333 184.404L178.005 173.681Z" fill="#4C4C4C"/>
<path d="M187.2 132.192C186.191 130.481 185.035 128.862 183.744 127.353C180.964 124.108 177.587 121.427 173.797 119.458C163.836 114.264 151.504 114.179 141.119 120.314C139.634 121.192 138.217 122.182 136.881 123.274C133.58 125.981 130.827 129.294 128.769 133.035C123.273 143.026 122.992 155.555 129.092 166.119C129.148 166.219 129.203 166.317 129.263 166.418C131.005 169.38 133.191 172.056 135.746 174.353C146.376 183.917 162.373 185.948 175.34 178.291C182.378 174.145 187.66 167.57 190.195 159.802C193.109 150.92 192.327 140.874 187.2 132.192ZM183.414 160.511C181.086 165.756 177.178 170.141 172.237 173.055C163.514 178.21 153.113 178.003 144.85 173.421C141.299 171.458 138.23 168.727 135.866 165.427C135.385 164.759 134.93 164.06 134.501 163.339C128.549 153.249 129.746 140.918 136.582 132.237C138.69 129.558 141.278 127.296 144.213 125.566C154.542 119.462 167.228 120.875 175.927 128.169C178.328 130.183 180.368 132.593 181.959 135.294C186.666 143.26 186.901 152.637 183.414 160.511Z" fill="#5E5E5E"/>
<path d="M207.399 225.78L201.404 229.321C200.953 229.588 200.454 229.763 199.935 229.837C199.417 229.91 198.888 229.881 198.381 229.75C197.874 229.62 197.397 229.39 196.978 229.076C196.559 228.761 196.207 228.366 195.94 227.915L172.977 189.003L185.842 181.401L208.806 220.312C209.344 221.224 209.498 222.312 209.234 223.337C208.97 224.363 208.31 225.241 207.399 225.78Z" fill="#5E5E5E"/>
<path d="M162.659 154.741C162.527 154.755 162.395 154.758 162.263 154.751C161.475 154.706 160.642 154.265 159.903 153.534C158.743 154.6 157.422 155.339 156.09 155.175C154.846 155.026 153.692 154.1 152.751 152.498C152.375 151.846 152.063 151.16 151.819 150.447C150.098 152.185 148.166 153.796 146.353 155.176L145.609 154.196C147.914 152.443 149.86 150.73 151.419 149.092C150.82 146.622 150.789 143.748 151.781 141.326C152.39 139.838 154.262 136.74 155.85 137.225C157.097 137.607 157.147 139.398 157.172 140.26C157.172 140.342 157.176 140.413 157.179 140.473C157.322 143.431 155.406 146.564 152.788 149.428C153.029 150.28 153.373 151.099 153.811 151.868C154.54 153.108 155.401 153.847 156.236 153.947C157.114 154.052 158.133 153.476 159.105 152.571C158.991 152.407 158.882 152.235 158.777 152.054C157.734 150.255 157.536 148.329 158.248 146.901C159.004 145.383 160.793 144.398 162.169 144.209C162.937 144.106 163.526 144.251 163.874 144.636C164.759 145.615 163.788 147.897 163.129 149.171C162.48 150.419 161.686 151.585 160.762 152.646C161.284 153.166 161.846 153.487 162.331 153.515C163.781 153.597 165.393 151.095 166.458 149.439C167.428 147.934 167.961 147.105 168.731 147.477C169.377 147.79 169.2 148.568 168.995 149.47C168.8 150.328 168.504 151.624 168.976 152.148C169.244 152.446 170.281 152.98 174.113 151.487L174.559 152.635C171.121 153.975 169.056 154.082 168.061 152.971C167.323 152.151 167.441 150.921 167.651 149.854L167.487 150.106C166.281 151.998 164.647 154.536 162.659 154.741ZM162.425 145.424C162.311 145.436 162.198 145.455 162.087 145.481C161.136 145.693 159.873 146.403 159.349 147.457C158.729 148.701 159.196 150.328 159.84 151.443C159.885 151.52 159.931 151.596 159.978 151.671C160.514 151.047 161 150.383 161.431 149.683C162.819 147.436 163.158 145.767 162.959 145.464C162.937 145.447 162.771 145.388 162.428 145.424H162.425ZM155.457 138.408C154.993 138.457 153.659 139.992 152.916 141.797C152.144 143.684 152.081 145.932 152.442 147.965C154.837 145.182 156.049 142.648 155.95 140.539C155.95 140.473 155.944 140.393 155.942 140.302C155.901 138.839 155.672 138.465 155.487 138.408C155.477 138.408 155.467 138.408 155.457 138.408Z" fill="#444444"/>
<path d="M170.81 145.28C170.828 145.45 170.794 145.621 170.715 145.772C170.635 145.923 170.512 146.047 170.362 146.128C170.212 146.209 170.042 146.244 169.872 146.228C169.702 146.212 169.541 146.146 169.408 146.038C169.276 145.931 169.178 145.786 169.128 145.623C169.078 145.46 169.077 145.286 169.126 145.122C169.175 144.959 169.271 144.813 169.402 144.704C169.534 144.595 169.694 144.528 169.864 144.51C169.977 144.499 170.09 144.509 170.199 144.542C170.307 144.574 170.408 144.628 170.496 144.699C170.584 144.77 170.657 144.859 170.711 144.958C170.765 145.058 170.798 145.167 170.81 145.28Z" fill="#444444"/>
<path d="M143.832 156.847C144.263 156.796 144.571 156.405 144.52 155.974C144.468 155.543 144.078 155.235 143.647 155.286C143.216 155.337 142.909 155.728 142.96 156.159C143.011 156.59 143.402 156.898 143.832 156.847Z" fill="#444444"/>
<g style="mix-blend-mode:multiply" opacity="0.2">
<path d="M52.6595 137.33C62.3538 127.629 62.3538 111.902 52.6595 102.202C42.9651 92.5011 27.2475 92.5011 17.5532 102.202C7.85882 111.902 7.85882 127.629 17.5532 137.33C27.2475 147.03 42.9651 147.03 52.6595 137.33Z" fill="#3A7EC1"/>
</g>
<path d="M56.9407 133.2C66.6351 123.499 66.6351 107.772 56.9407 98.0716C47.2464 88.3713 31.5287 88.3713 21.8344 98.0716C12.1401 107.772 12.1401 123.499 21.8344 133.2C31.5287 142.9 47.2464 142.9 56.9407 133.2Z" fill="#F9C067"/>
<path d="M36.6361 126.608C36.3283 126.658 36.0129 126.634 35.7163 126.538L29.3681 124.478C29.1218 124.401 28.8933 124.275 28.6958 124.109C28.4983 123.942 28.3357 123.738 28.2174 123.509C28.0991 123.279 28.0274 123.028 28.0064 122.771C27.9855 122.513 28.0158 122.254 28.0954 122.008C28.1751 121.763 28.3026 121.535 28.4707 121.339C28.6387 121.143 28.8439 120.982 29.0744 120.866C29.3049 120.749 29.5562 120.68 29.8137 120.661C30.0712 120.642 30.3299 120.675 30.5748 120.757L35.3425 122.304L46.7839 100.088C46.899 99.855 47.0592 99.6478 47.2552 99.4779C47.4512 99.308 47.6789 99.1788 47.9253 99.0978C48.1716 99.0168 48.4316 98.9856 48.6901 99.0061C48.9485 99.0266 49.2004 99.0984 49.4309 99.2172C49.6614 99.336 49.866 99.4995 50.0328 99.6982C50.1995 99.8968 50.3251 100.127 50.4022 100.374C50.4794 100.622 50.5065 100.883 50.482 101.141C50.4575 101.399 50.3819 101.65 50.2597 101.879L38.0575 125.573C37.9177 125.845 37.7163 126.08 37.4694 126.259C37.2226 126.439 36.9372 126.558 36.6361 126.608Z" fill="white"/>
</svg>
